<svg version="1.1" xmlns="http://www.w3.org/2000/svg" xmlns:xlink="http://www.w3.org/1999/xlink" width="127.5" height="138.38141" viewBox="0,0,127.5,138.38141"><defs><linearGradient x1="276" y1="179.99999" x2="364" y2="179.99999" gradientUnits="userSpaceOnUse" id="color-1"><stop offset="0" stop-color="#80ff00"/><stop offset="1" stop-color="#ffd400"/></linearGradient></defs><g transform="translate(-257.75071,-137.02678)"><g stroke-miterlimit="10"><path d="M276,196.7363c0,-14.72642 0,-35.64006 0,-44c0,-6.92392 6.51594,-15.70952 15.72857,-15.70952c17.96233,0 46.17621,0 56.33333,0c7.22674,0 15.9381,6.84832 15.9381,16.04286c0,14.68447 0,35.35339 0,43.66667c0,6.95194 -8.81732,15.79048 -16.10476,15.79048c-5.52557,0 -27.94524,0 -27.94524,0l-20.125,10.44643v-10.44643c0,0 -5.45364,0 -7.92976,0c-9.29899,0 -15.89524,-6.72217 -15.89524,-15.79048z" fill="url(#color-1)" stroke="none" stroke-width="0"/><path d="M313.04167,175.54166c0,-3.84298 3.11535,-6.95833 6.95833,-6.95833c3.84298,0 6.95833,3.11535 6.95833,6.95833c0,3.84298 -3.11535,6.95833 -6.95833,6.95833c-3.84298,0 -6.95833,-3.11535 -6.95833,-6.95833z" fill-opacity="0.50196" fill="#ffffff" stroke="#5f803e" stroke-width="0"/><path d="M290.875,175.54165c0,-3.84298 3.11535,-6.95833 6.95833,-6.95833c3.84298,0 6.95833,3.11535 6.95833,6.95833c0,3.84298 -3.11535,6.95834 -6.95833,6.95834c-3.84298,0 -6.95833,-3.11535 -6.95833,-6.95834z" fill-opacity="0.50196" fill="#ffffff" stroke="#5f803e" stroke-width="0"/><path d="M335.54167,175.54165c0,-3.84298 3.11535,-6.95833 6.95833,-6.95833c3.84298,0 6.95833,3.11535 6.95833,6.95833c0,3.84298 -3.11535,6.95834 -6.95833,6.95834c-3.84298,0 -6.95833,-3.11535 -6.95833,-6.95834z" fill-opacity="0.50196" fill="#ffffff" stroke="#5f803e" stroke-width="0"/><path d="M259.00071,270.05121c0,-4.69017 0,-23.67098 0,-32.32128c0,-2.65246 1.82738,-4.33362 5.03432,-4.33362c8.43324,0 45.77546,0 45.77546,0l11.57407,-8.64646l12.15278,8.64646c0,0 40.77008,0 45.85262,0c2.57073,0 4.61075,2.0176 4.61075,3.71601c0,4.29729 0,23.05679 0,32.11542c0,2.99567 -1.66646,4.93045 -3.83914,4.93045c-10.62507,0 -95.14413,0 -116.70524,0c-3.20733,0 -4.45561,-2.05564 -4.45561,-4.10698z" fill-opacity="0.50196" fill="#ffffff" stroke="#989898" stroke-width="2.5"/><text transform="translate(281.50071,259.37069) scale(0.5,0.5)" font-size="40" xml:space="preserve" fill="#989898" stroke="none" stroke-width="1" font-family="&quot;MS Reference Sans Serif&quot;, Sans Serif" font-weight="normal" text-anchor="start"><tspan x="0" dy="0">投稿する</tspan></text></g></g></svg>