<svg version="1.1" xmlns="http://www.w3.org/2000/svg" xmlns:xlink="http://www.w3.org/1999/xlink" width="283.60955" height="162.16666" viewBox="0,0,283.60955,162.16666"><g transform="translate(-178.19522,-98.91667)"><g stroke-miterlimit="10"><path d="M178.94523,250.65c0,-31.49582 0,-127.84386 0,-142.5c0,-3.58673 4.87619,-8.48333 9.35478,-8.48333c23.31145,0 216.86282,0 263,0c6.23889,0 9.75477,4.95504 9.75477,10.48333c0,17.43473 0,110.0825 0,140.5c0,6.08819 -4.0445,9.68333 -9.25477,9.68333c-24.88028,0 -217.03369,0 -263,0c-6.30075,0 -9.85478,-3.59097 -9.85478,-9.68333z" fill-opacity="0.74902" fill="#d4fffe" stroke="#989898" stroke-width="1.5"/><path d="M201.29186,113.72395c0,1.87107 0,4.17154 0,5.98287c0,1.75573 -1.74395,3.05185 -3.1141,3.05185c-1.65193,0 -5.77833,0 -8.66757,0c-1.76193,0 -3.06377,-1.29552 -3.06377,-3.05185c0,-2.90134 0,-7.0602 0,-8.71391c0,-1.35822 1.68087,-3.07966 3.01743,-3.07966c1.07984,0 3.248,0 5.43643,0" fill="none" stroke="#989898" stroke-width="1.5"/><path d="M193.86915,115.33596v-3.2674c0,0 5.18244,-5.2111 6.27052,-6.3052c0.38286,-0.38498 1.20404,-0.34616 1.5236,-0.02151c0.30324,0.30808 0.95773,0.97301 1.50557,1.52959c0.48509,0.49283 0.43316,1.35878 0.00717,1.78912c-1.1322,1.14375 -6.212,6.27539 -6.212,6.27539z" fill="none" stroke="#989898" stroke-width="1"/><path d="M198.17867,108.32913l2.34752,-2.35593c0,0 0.0598,-0.03706 0.15276,-0.06124c0.06789,-0.01767 0.1825,-0.03569 0.30076,-0.02792c0.08307,0.00546 0.16295,0.02862 0.25124,0.05204c0.06829,0.01811 0.15183,0.10398 0.24404,0.19396c0.12039,0.11746 0.24864,0.24885 0.30664,0.316c0.08246,0.09547 0.23016,0.23642 0.39331,0.40287c0.08274,0.08441 0.1702,0.17539 0.27124,0.27031c0.04398,0.04132 0.07471,0.08339 0.11961,0.126c0.02729,0.0259 0.07224,0.052 0.09274,0.07825c0.02253,0.02883 0.04911,0.05785 0.07767,0.08699c0.10915,0.11135 0.22737,0.22439 0.27724,0.33555c0.03671,0.08183 0.07296,0.16874 0.08899,0.2534c0.01924,0.10165 0.0137,0.20007 0.00301,0.28266c-0.01245,0.09616 -0.03962,0.18913 -0.06993,0.25681c-0.05788,0.12928 -0.12719,0.19239 -0.12719,0.19239l-2.31488,2.34336z" fill="#989898" stroke="none" stroke-width="0"/><text transform="translate(219.18095,120.71029) scale(0.45625,0.45625)" font-size="40" xml:space="preserve" fill="#989898" stroke="none" stroke-width="1" font-family="&quot;Keifont&quot;, Sans Serif" font-weight="normal" text-anchor="start"><tspan x="0" dy="0">New Post</tspan></text><g><path d="M432.01428,105.48646l21.46425,8.87417l-21.46425,8.87417z" fill="none" stroke="#989898" stroke-width="1.5"/><path d="M432.37791,111.80987l9.64513,2.59622l-9.64513,2.59622z" fill="#989898" stroke="#989898" stroke-width="0"/></g><path d="M186.44642,151.31453v-21.05586h267.03211v21.05586z" fill="none" stroke="#989898" stroke-width="1.5"/><text transform="translate(190.77976,144.45489) scale(0.28729,0.28729)" font-size="40" xml:space="preserve" fill="#989898" stroke="none" stroke-width="1" font-family="&quot;Keifont&quot;, Sans Serif" font-weight="normal" text-anchor="start"><tspan x="0" dy="0">絵文字を入力...</tspan></text></g></g></svg>