<svg version="1.1" xmlns="http://www.w3.org/2000/svg" xmlns:xlink="http://www.w3.org/1999/xlink" width="14.31835" height="18.04484" viewBox="0,0,14.31835,18.04484"><g transform="translate(-312.84083,-170.97758)"><g stroke="#956400" stroke-width="0" stroke-miterlimit="10"><path d="" fill="#ef9645"/><path d="" fill="#ef9645"/><path d="" fill="#ef9645"/><path d="" fill="#ef9645"/><path d="M318.13811,172.60213c0,0 0.86215,-0.88438 1.35086,-0.39508c0.16508,0.16528 0.45774,0.35047 0.657,0.5868c0.08782,0.10417 0.15286,0.52422 0.15286,0.52422l0.02695,5.73276l0.25745,-0.03117l0.02229,-7.46044c0,0 0.1779,-0.29249 0.47276,-0.44763c0.37919,-0.19951 1.14077,-0.22874 1.44843,0.28272c0.09402,0.1563 0.18613,0.36233 0.28075,0.58161c0.10026,0.23233 -0.05506,6.95905 -0.05506,6.95905l0.40476,0.01719l-0.05924,-6.4418c0,0 0.09506,-0.22432 0.35175,-0.35142c0.47414,-0.23478 1.3335,-0.34759 1.64069,0.41801c0.11914,0.29691 0.09381,6.93667 0.09381,6.93667l0.28947,-0.0008c-0.06284,0.48268 -0.11887,1.08198 -0.13509,1.65287c-0.76313,0.04725 -1.45257,0.09976 -1.49014,0.09931c-1.36481,-0.01639 -4.24641,-0.80913 -5.81409,-0.11138z" fill="#ef9645"/><path d="M315.15188,184.09488c0,-0.27394 0.05142,-0.88089 -0.53782,-1.79086c-0.42058,-0.64951 -1.47681,-1.5707 -1.70098,-2.10048c-0.19286,-0.45579 0.04773,-0.77992 0.17131,-0.90018c0.36175,-0.35203 0.91495,-0.34596 1.64679,-0.17845c0.21243,0.04862 0.66535,0.40716 0.97096,0.84269c0.48837,0.69599 0.87075,1.58861 1.3318,1.72738c0.20856,0.06278 0.54471,-0.07714 0.54471,-0.07714l0.10946,-9.01573c0,0 0.86215,-0.88439 1.35086,-0.39508c0.16508,0.16528 0.45774,0.35047 0.657,0.58681c0.08782,0.10417 0.15286,0.52421 0.15286,0.52421l0.02695,5.73277l0.25745,-0.03117l0.02229,-7.46043c0,0 0.1779,-0.29249 0.47276,-0.44763c0.37919,-0.19951 1.14077,-0.22874 1.44843,0.28272c0.09402,0.1563 0.18612,0.36233 0.28075,0.58161c0.10026,0.23233 -0.05506,6.95905 -0.05506,6.95905l0.40476,0.01719l-0.05924,-6.4418c0,0 0.09506,-0.22432 0.35175,-0.35142c0.47414,-0.23478 1.3335,-0.34759 1.64069,0.41801c0.11914,0.29691 0.09381,6.93668 0.09381,6.93668l0.45892,-0.00127l-0.01525,-5.003c0,0 0.02161,-0.28627 0.30773,-0.41968c0.48401,-0.22567 1.40421,-0.25673 1.56408,0.50886c0.01141,0.05461 0.01132,0.1029 0.01132,0.1029c0,0 0.02225,2.10985 0.04556,4.33446c0.02568,2.44946 0.05264,5.03803 0.05264,5.10246c0,1.69186 -1.89497,3.7099 -3.84754,4.56788c-0.70322,0.309 -1.47067,0.31618 -2.08,0.31618c-0.67705,0 -1.63956,-0.08975 -2.45778,-0.4179c-0.45009,-0.18051 -0.76555,-0.47864 -1.17915,-0.76699c-1.39006,-0.96912 -2.44279,-2.49095 -2.44279,-3.74265z" fill="#ffde00"/></g></g></svg>