<svg version="1.1" xmlns="http://www.w3.org/2000/svg" xmlns:xlink="http://www.w3.org/1999/xlink" width="40.39642" height="68.10224" viewBox="0,0,40.39642,68.10224"><defs><linearGradient x1="320.00001" y1="162.5518" x2="320.00001" y2="197.44822" gradientUnits="userSpaceOnUse" id="color-1"><stop offset="0" stop-color="#ffb7d5"/><stop offset="1" stop-color="#c3d7ff"/></linearGradient><linearGradient x1="320.00001" y1="162.5518" x2="320.00001" y2="197.44822" gradientUnits="userSpaceOnUse" id="color-2"><stop offset="0" stop-color="#c3d7ff"/><stop offset="1" stop-color="#fdb7d6"/></linearGradient></defs><g transform="translate(-301.40178,-162.05179)"><g stroke-miterlimit="10"><path d="M304.15179,181.60001c0,-9.63638 7.81183,-17.44822 17.44822,-17.44822c9.63639,0 17.44822,7.81183 17.44822,17.44822c0,9.63638 -7.81183,17.44822 -17.44822,17.44822c-9.63639,0 -17.44822,-7.81183 -17.44822,-17.44822z" fill-opacity="0.25098" fill="#000000" stroke-opacity="0.25098" stroke="#000000" stroke-width="0"/><path d="M302.5518,180.00001c0,-9.63638 7.81183,-17.44821 17.44821,-17.44821c9.63638,0 17.44821,7.81183 17.44821,17.44821c0,9.63638 -7.81183,17.44821 -17.44821,17.44821c-9.63638,0 -17.44821,-7.81183 -17.44821,-17.44821z" fill="url(#color-1)" stroke="url(#color-2)" stroke-width="1"/><path d="M329.05358,178.03383c0,2.28216 0,5.08808 0,7.29737c0,2.14148 -2.12712,3.72238 -3.7983,3.72238c-2.01488,0 -7.0479,0 -10.57193,0c-2.14905,0 -3.73692,-1.58016 -3.73692,-3.72238c0,-3.5388 0,-8.61141 0,-10.62846c0,-1.65664 2.05018,-3.7563 3.68039,-3.7563c1.31709,0 3.96162,0 6.63088,0" fill="none" stroke-opacity="0.25098" stroke="#000000" stroke-width="1.5"/><path d="M320.00001,180.00001v-3.98528c0,0 6.32108,-6.35604 7.64822,-7.69052c0.46698,-0.46956 1.46858,-0.42222 1.85835,-0.02624c0.36987,0.37577 1.16815,1.18679 1.83636,1.86566c0.59167,0.60111 0.52833,1.65732 0.00874,2.18221c-1.38096,1.39505 -7.57685,7.65417 -7.57685,7.65417z" fill="none" stroke-opacity="0.25098" stroke="#000000" stroke-width="1"/><path d="M325.25638,171.4537l2.8633,-2.87355c0,0 0.07294,-0.0452 0.18632,-0.0747c0.08281,-0.02155 0.2226,-0.04353 0.36684,-0.03405c0.10132,0.00666 0.19875,0.03491 0.30644,0.06347c0.0833,0.02209 0.18519,0.12683 0.29766,0.23657c0.14684,0.14327 0.30327,0.30352 0.37401,0.38543c0.10058,0.11645 0.28073,0.28837 0.47973,0.49139c0.10092,0.10296 0.2076,0.21392 0.33083,0.3297c0.05364,0.0504 0.09113,0.10171 0.14589,0.15368c0.03329,0.03159 0.08811,0.06342 0.11312,0.09544c0.02748,0.03517 0.0599,0.07056 0.09473,0.1061c0.13313,0.13581 0.27732,0.27369 0.33815,0.40927c0.04478,0.09981 0.08899,0.20581 0.10854,0.30908c0.02347,0.12398 0.01671,0.24403 0.00367,0.34476c-0.01519,0.11729 -0.04833,0.23068 -0.08529,0.31323c-0.0706,0.15768 -0.15514,0.23466 -0.15514,0.23466l-2.82349,2.85822z" fill-opacity="0.25098" fill="#000000" stroke="none" stroke-width="0"/><path d="M302.15179,227.35054c0,-2.34509 0,-11.83549 0,-16.16064c0,-1.32623 0.56863,-2.16681 1.56654,-2.16681c2.62418,0 14.24401,0 14.24401,0l3.60152,-4.32323l3.7816,4.32323c0,0 12.68648,0 14.26802,0c0.79994,0 1.43473,1.0088 1.43473,1.85801c0,2.14864 0,11.52839 0,16.05771c0,1.49784 -0.51855,2.46523 -1.19463,2.46523c-3.30622,0 -29.60613,0 -36.31533,0c-0.99803,0 -1.38646,-1.02782 -1.38646,-2.05349z" fill-opacity="0.50196" fill="#ffffff" stroke="#989898" stroke-width="1.5"/><text transform="translate(311.60001,221.88528) scale(0.25,0.25)" font-size="40" xml:space="preserve" fill="#989898" stroke="none" stroke-width="1" font-family="&quot;MS Reference Sans Serif&quot;, Sans Serif" font-weight="normal" text-anchor="start"><tspan x="0" dy="0">投稿</tspan></text></g></g></svg>