<svg version="1.1" xmlns="http://www.w3.org/2000/svg" xmlns:xlink="http://www.w3.org/1999/xlink" width="36.99643" height="36.99643" viewBox="0,0,36.99643,36.99643"><defs><linearGradient x1="320.00001" y1="162.5518" x2="320.00001" y2="197.44822" gradientUnits="userSpaceOnUse" id="color-1"><stop offset="0" stop-color="#ffb7d5"/><stop offset="1" stop-color="#c3d7ff"/></linearGradient><linearGradient x1="320.00001" y1="162.5518" x2="320.00001" y2="197.44822" gradientUnits="userSpaceOnUse" id="color-2"><stop offset="0" stop-color="#c3d7ff"/><stop offset="1" stop-color="#fdb7d6"/></linearGradient></defs><g transform="translate(-302.0518,-162.05179)"><g stroke-miterlimit="10"><path d="M304.15179,181.60001c0,-9.63638 7.81183,-17.44822 17.44822,-17.44822c9.63639,0 17.44822,7.81183 17.44822,17.44822c0,9.63638 -7.81183,17.44822 -17.44822,17.44822c-9.63639,0 -17.44822,-7.81183 -17.44822,-17.44822z" fill-opacity="0.25098" fill="#000000" stroke-opacity="0.25098" stroke="#000000" stroke-width="0"/><path d="M302.5518,180.00001c0,-9.63638 7.81183,-17.44821 17.44821,-17.44821c9.63638,0 17.44821,7.81183 17.44821,17.44821c0,9.63638 -7.81183,17.44821 -17.44821,17.44821c-9.63638,0 -17.44821,-7.81183 -17.44821,-17.44821z" fill="url(#color-1)" stroke="url(#color-2)" stroke-width="1"/><path d="M314.85511,180.00332c0,-3.0619 2.48217,-5.54406 5.54406,-5.54406c3.0619,0 5.54406,2.48216 5.54406,5.54406c0,3.0619 -2.48217,5.54407 -5.54406,5.54407c-3.0619,0 -5.54406,-2.48217 -5.54406,-5.54407z" fill="none" stroke-opacity="0.25098" stroke="#000000" stroke-width="3.5"/><path d="M318.50784,172.97553c0,0 0,-0.54798 0,-0.82489c0,-0.81822 0,-4.85365 0,-4.85365h3.78267c0,0 0,3.91111 0,4.76523c0,0.31409 0,0.90225 0,0.90225c0,0 -0.50429,-0.11828 -1.03505,-0.18107c-0.31013,-0.03669 -0.6293,-0.0547 -0.86218,-0.0547c-0.24075,0 -0.58419,0.02021 -0.90291,0.05881c-0.51461,0.06233 -0.98253,0.18802 -0.98253,0.18802z" fill-opacity="0.25098" fill="#000000" stroke-opacity="0.25098" stroke="#000000" stroke-width="0"/><path d="M319.49037,187.2125c0.31872,0.0386 0.66217,0.05881 0.90291,0.05881c0.23288,0 0.55205,-0.01801 0.86218,-0.0547c0.53076,-0.06279 1.03505,-0.18107 1.03505,-0.18107c0,0 0,0.58817 0,0.90225c0,0.85413 0,4.76523 0,4.76523h-3.78267c0,0 0,-4.03543 0,-4.85365c0,-0.27692 0,-0.82489 0,-0.82489c0,0 0.46792,0.12569 0.98253,0.18802z" fill-opacity="0.25098" fill="#000000" stroke-opacity="0.25098" stroke="#000000" stroke-width="0"/><path d="M327.42785,178.11198c0,0 0.54798,0 0.8249,0c0.81822,0 4.85365,0 4.85365,0v3.78267c0,0 -3.91111,0 -4.76524,0c-0.31409,0 -0.90226,0 -0.90226,0c0,0 0.11828,-0.50429 0.18107,-1.03505c0.03669,-0.31013 0.0547,-0.62931 0.0547,-0.86219c0,-0.24075 -0.02021,-0.58419 -0.05881,-0.90291c-0.06233,-0.51461 -0.18802,-0.98253 -0.18802,-0.98253z" fill-opacity="0.25098" fill="#000000" stroke-opacity="0.25098" stroke="#000000" stroke-width="0"/><path d="M313.18414,179.09451c-0.0386,0.31872 -0.05881,0.66216 -0.05881,0.90291c0,0.23288 0.01801,0.55206 0.0547,0.86219c0.06279,0.53076 0.18107,1.03505 0.18107,1.03505c0,0 -0.58817,0 -0.90226,0c-0.85413,0 -4.76524,0 -4.76524,0v-3.78267c0,0 4.03544,0 4.85365,0c0.27692,0 0.8249,0 0.8249,0c0,0 -0.12569,0.46792 -0.18802,0.98253z" fill-opacity="0.25098" fill="#000000" stroke-opacity="0.25098" stroke="#000000" stroke-width="0"/><path d="M326.71664,183.61864c0,0 0.38747,0.38747 0.58329,0.58328c0.57857,0.57856 3.43205,3.43205 3.43205,3.43205l-2.67474,2.67475c0,0 -2.76558,-2.76557 -3.36954,-3.36953c-0.2221,-0.22209 -0.63799,-0.63799 -0.63799,-0.63799c0,0 0.44022,-0.27294 0.85993,-0.60385c0.24524,-0.19335 0.48367,-0.40631 0.64834,-0.57098c0.17023,-0.17023 0.39879,-0.42737 0.59687,-0.68004c0.31981,-0.40795 0.5618,-0.82769 0.5618,-0.82769z" fill-opacity="0.25098" fill="#000000" stroke-opacity="0.25098" stroke="#000000" stroke-width="0"/><path d="M314.64259,184.44633c0.19808,0.25267 0.42664,0.50981 0.59687,0.68004c0.16467,0.16467 0.40309,0.37763 0.64833,0.57098c0.41971,0.33091 0.85993,0.60385 0.85993,0.60385c0,0 -0.41589,0.4159 -0.63799,0.63799c-0.60396,0.60396 -3.36953,3.36953 -3.36953,3.36953l-2.67475,-2.67475c0,0 2.85348,-2.85349 3.43205,-3.43205c0.19581,-0.19582 0.58329,-0.58328 0.58329,-0.58328c0,0 0.24199,0.41974 0.5618,0.82769z" fill-opacity="0.25098" fill="#000000" stroke-opacity="0.25098" stroke="#000000" stroke-width="0"/><path d="M326.15484,175.55684c-0.19808,-0.25267 -0.42663,-0.50981 -0.59687,-0.68004c-0.16467,-0.16467 -0.4031,-0.37762 -0.64834,-0.57098c-0.41971,-0.33091 -0.85993,-0.60386 -0.85993,-0.60386c0,0 0.41589,-0.4159 0.63799,-0.63799c0.60396,-0.60396 3.36954,-3.36953 3.36954,-3.36953l2.67474,2.67476c0,0 -2.85348,2.85348 -3.43205,3.43204c-0.19581,0.19582 -0.58329,0.58329 -0.58329,0.58329c0,0 -0.24199,-0.41974 -0.5618,-0.8277z" fill-opacity="0.25098" fill="#000000" stroke-opacity="0.25098" stroke="#000000" stroke-width="0"/><path d="M314.07513,176.38454c0,0 -0.38747,-0.38747 -0.58328,-0.58329c-0.57857,-0.57856 -3.43205,-3.43204 -3.43205,-3.43204l2.67475,-2.67476c0,0 2.76557,2.76557 3.36953,3.36953c0.2221,0.22209 0.63799,0.63799 0.63799,0.63799c0,0 -0.44022,0.27295 -0.85993,0.60386c-0.24524,0.19335 -0.48366,0.40631 -0.64833,0.57098c-0.17023,0.17023 -0.3988,0.42737 -0.59687,0.68004c-0.31981,0.40795 -0.5618,0.8277 -0.5618,0.8277z" fill-opacity="0.25098" fill="#000000" stroke-opacity="0.25098" stroke="#000000" stroke-width="0"/></g></g></svg>