<svg version="1.1" xmlns="http://www.w3.org/2000/svg" xmlns:xlink="http://www.w3.org/1999/xlink" width="15.56667" height="15.56667" viewBox="0,0,15.56667,15.56667"><g transform="translate(-312.21666,-172.21666)"><g stroke="#80ff00" stroke-width="0" stroke-miterlimit="10"><path d="M312.21666,180c0,-4.29862 3.48472,-7.78333 7.78334,-7.78333c4.29861,0 7.78334,3.48472 7.78334,7.78333c0,4.29862 -3.48472,7.78333 -7.78334,7.78333c-4.29861,0 -7.78334,-3.48472 -7.78334,-7.78333z" fill="#ffde00"/><path d="M318.58975,177.9451c0,0.81002 -0.50511,1.46667 -1.1282,1.46667c-0.62309,0 -1.12821,-0.65664 -1.12821,-1.46667c0,-0.81002 0.50512,-1.46667 1.12821,-1.46667c0.62309,0 1.1282,0.65665 1.1282,1.46667z" fill="#956400"/><path d="M323.65641,177.9451c0,0.81002 -0.50511,1.46667 -1.1282,1.46667c-0.62309,0 -1.12821,-0.65664 -1.12821,-1.46667c0,-0.81002 0.50512,-1.46667 1.12821,-1.46667c0.62309,0 1.1282,0.65665 1.1282,1.46667z" fill="#956400"/><path d="M315.05,182.25343c0,-0.81411 0.03748,-1.03399 0.56501,-1.08465c0.97553,-0.09368 2.92117,0.59298 4.42666,0.59298c1.30041,0 3.10208,-0.56141 4.06811,-0.64604c0.75712,-0.06633 0.84022,0.16019 0.84022,1.17938c0,0.7386 -0.55836,1.48162 -0.99679,1.98097c-0.93849,1.06889 -2.37221,1.46903 -3.95321,1.46903c-1.60363,0 -3.14413,-0.44186 -4.07301,-1.55412c-0.41472,-0.4966 -0.87699,-1.22158 -0.87699,-1.93754z" fill="#956400"/><path d="M323.99641,181.95064c-0.74747,0.96311 -2.68289,1.74959 -3.99641,1.74959c-1.41764,0 -3.03333,-0.65531 -3.76609,-1.75163c-0.20978,-0.31387 1.89244,0.51459 3.88593,0.49942c2.12716,-0.01619 4.1536,-0.85433 3.87657,-0.49738z" fill="#ffffff"/></g></g></svg>