<svg version="1.1" xmlns="http://www.w3.org/2000/svg" xmlns:xlink="http://www.w3.org/1999/xlink" width="15.56668" height="16.08832" viewBox="0,0,15.56668,16.08832"><g transform="translate(-312.21666,-171.69503)"><g stroke-width="0" stroke-miterlimit="10"><path d="M312.21666,180.00002c0,-4.29862 3.48472,-7.78333 7.78334,-7.78333c4.29861,0 7.78334,3.48472 7.78334,7.78333c0,4.29862 -3.48472,7.78333 -7.78334,7.78333c-4.29861,0 -7.78334,-3.48472 -7.78334,-7.78333z" fill="#ffde00" stroke="#80ff00"/><path d="M315.05001,182.25345c0,-0.81411 0.03748,-1.03399 0.56501,-1.08465c0.97553,-0.09368 2.92117,0.59298 4.42666,0.59298c1.30041,0 3.10208,-0.56141 4.06811,-0.64604c0.75712,-0.06633 0.84022,0.16019 0.84022,1.17938c0,0.7386 -0.55836,1.48162 -0.99679,1.98097c-0.93849,1.06889 -2.37221,1.46903 -3.95321,1.46903c-1.60363,0 -3.14413,-0.44186 -4.07301,-1.55412c-0.41472,-0.4966 -0.87699,-1.22158 -0.87699,-1.93754z" fill="#956400" stroke="#80ff00"/><path d="M323.99643,181.95066c-0.74747,0.96311 -2.68289,1.74959 -3.99641,1.74959c-1.41764,0 -3.03333,-0.65531 -3.76609,-1.75163c-0.20978,-0.31387 1.89244,0.51459 3.88593,0.49942c2.12716,-0.01619 4.1536,-0.85433 3.87657,-0.49738z" fill="#ffffff" stroke="#80ff00"/><path d="M314.97971,179.09906c0,-0.87314 1.10782,-1.58095 1.98095,-1.58095c0.87314,0 1.82095,0.66782 1.82095,1.54095c0,0.87314 -1.10782,-0.09905 -1.98095,-0.09905c-0.87314,0 -1.82095,1.01218 -1.82095,0.13905z" fill="#956400" stroke="#80ff00"/><path d="M321.29971,179.09906c0,-0.87313 1.10782,-1.58095 1.98095,-1.58095c0.87313,0 1.82095,0.66782 1.82095,1.54095c0,0.87313 -1.10782,-0.09905 -1.98095,-0.09905c-0.87313,0 -1.82096,1.01218 -1.82096,0.13905z" fill="#956400" stroke="#80ff00"/><path d="M323.55065,175.55464c0,-1.19485 1.90096,-3.85962 1.90096,-3.85962c0,0 1.90096,2.66477 1.90096,3.85962c0,1.19485 -0.85109,2.16346 -1.90096,2.16346c-1.04987,0 -1.90096,-0.96861 -1.90096,-2.16346z" fill="#00cfff" stroke="none"/></g></g></svg>