<svg version="1.1" xmlns="http://www.w3.org/2000/svg" xmlns:xlink="http://www.w3.org/1999/xlink" width="18.04484" height="14.31835" viewBox="0,0,18.04484,14.31835"><g transform="translate(-310.97758,-172.84083)"><g stroke="#956400" stroke-width="0" stroke-miterlimit="10"><path d="" fill="#ef9645"/><path d="" fill="#ef9645"/><path d="" fill="#ef9645"/><path d="" fill="#ef9645"/><path d="M327.39787,178.13811c0,0 0.88438,0.86215 0.39508,1.35086c-0.16528,0.16508 -0.35047,0.45774 -0.5868,0.657c-0.10417,0.08782 -0.52422,0.15286 -0.52422,0.15286l-5.73276,0.02695l0.03117,0.25745l7.46044,0.02229c0,0 0.29249,0.1779 0.44763,0.47276c0.19951,0.37919 0.22874,1.14077 -0.28272,1.44843c-0.1563,0.09402 -0.36233,0.18613 -0.58161,0.28075c-0.23233,0.10026 -6.95905,-0.05506 -6.95905,-0.05506l-0.01719,0.40476l6.4418,-0.05924c0,0 0.22432,0.09506 0.35142,0.35175c0.23478,0.47414 0.34759,1.3335 -0.41801,1.64069c-0.29691,0.11914 -6.93667,0.09381 -6.93667,0.09381l0.0008,0.28947c-0.48268,-0.06284 -1.08198,-0.11887 -1.65287,-0.13509c-0.04725,-0.76313 -0.09976,-1.45257 -0.09931,-1.49014c0.01639,-1.36481 0.80913,-4.24641 0.11138,-5.81409z" fill="#ef9645"/><path d="M315.90512,175.15188c0.27394,0 0.88089,0.05142 1.79086,-0.53782c0.64951,-0.42058 1.5707,-1.47681 2.10048,-1.70098c0.45579,-0.19286 0.77992,0.04773 0.90018,0.17131c0.35203,0.36175 0.34596,0.91495 0.17845,1.64679c-0.04862,0.21243 -0.40716,0.66535 -0.84269,0.97096c-0.69599,0.48837 -1.58861,0.87075 -1.72738,1.3318c-0.06278,0.20856 0.07714,0.54471 0.07714,0.54471l9.01573,0.10946c0,0 0.88439,0.86215 0.39508,1.35086c-0.16528,0.16508 -0.35047,0.45774 -0.58681,0.657c-0.10417,0.08782 -0.52421,0.15286 -0.52421,0.15286l-5.73277,0.02695l0.03117,0.25745l7.46043,0.02229c0,0 0.29249,0.1779 0.44763,0.47276c0.19951,0.37919 0.22874,1.14077 -0.28272,1.44843c-0.1563,0.09402 -0.36233,0.18612 -0.58161,0.28075c-0.23233,0.10026 -6.95905,-0.05506 -6.95905,-0.05506l-0.01719,0.40476l6.4418,-0.05924c0,0 0.22432,0.09506 0.35142,0.35175c0.23478,0.47414 0.34759,1.3335 -0.41801,1.64069c-0.29691,0.11914 -6.93668,0.09381 -6.93668,0.09381l0.00127,0.45892l5.003,-0.01525c0,0 0.28627,0.02161 0.41968,0.30773c0.22567,0.48401 0.25673,1.40421 -0.50886,1.56408c-0.05461,0.01141 -0.1029,0.01132 -0.1029,0.01132c0,0 -2.10985,0.02225 -4.33446,0.04556c-2.44946,0.02568 -5.03803,0.05264 -5.10246,0.05264c-1.69186,0 -3.7099,-1.89497 -4.56788,-3.84754c-0.309,-0.70322 -0.31618,-1.47067 -0.31618,-2.08c0,-0.67705 0.08975,-1.63956 0.4179,-2.45778c0.18051,-0.45009 0.47864,-0.76555 0.76699,-1.17915c0.96912,-1.39006 2.49095,-2.44279 3.74265,-2.44279z" fill="#ffde00"/></g></g></svg>