<svg version="1.1" xmlns="http://www.w3.org/2000/svg" xmlns:xlink="http://www.w3.org/1999/xlink" width="14.91406" height="16.3796" viewBox="0,0,14.91406,16.3796"><g transform="translate(-312.54297,-171.8102)"><g fill="#e73838" stroke="none" stroke-miterlimit="10"><path d="M320.50073,186.72972c0,-0.80638 0.65371,-1.46008 1.46008,-1.46008c0.80638,0 1.46008,0.6537 1.46008,1.46008c0,0.80638 -0.6537,1.46008 -1.46008,1.46008c-0.80638,0 -1.46008,-0.65371 -1.46008,-1.46008z" stroke-width="0"/><path d="M320.90557,179.63939c0.73175,-1.37877 6.81014,-1.42693 3.17359,-4.69688c-0.36422,-0.3275 -1.00094,-0.61024 -1.43212,-0.69558c-5.90675,-1.16903 -1.36886,4.38606 -4.34324,4.38606c-1.38536,0 -2.20955,-2.95848 -1.67465,-3.92043c1.41197,-2.53926 3.67032,-3.2232 6.86847,-2.77391c3.91096,0.54943 5.01718,5.48961 2.90388,7.90183c-0.72373,0.82611 -3.04031,0.39459 -3.11967,1.44382c-0.04872,0.64413 0.21848,1.91159 -0.42174,2.52166c-0.0493,0.04698 -0.11064,0.09074 -0.18114,0.13032c-0.21516,0.14108 -0.48022,0.22434 -0.76691,0.22434c-0.03475,0 -0.06919,-0.00122 -0.10326,-0.00362c-0.58233,0.0164 -1.16081,-0.21452 -1.16081,-0.88269c-0.02541,-0.09132 -0.03891,-0.1869 -0.03891,-0.2853c0,-0.07943 0.00879,-0.15702 0.02555,-0.23202c0.07491,-0.99032 -0.22497,-2.18317 0.27097,-3.11761z" stroke-width="0.5"/><path d="M312.54297,186.63061c0,-0.80638 0.65371,-1.46008 1.46008,-1.46008c0.80638,0 1.46008,0.6537 1.46008,1.46008c0,0.80638 -0.6537,1.46008 -1.46008,1.46008c-0.80638,0 -1.46008,-0.65371 -1.46008,-1.46008z" stroke-width="0"/><path d="M312.54297,182.15529c0,-0.06865 0.00474,-8.9221 0.0139,-8.98822c0.0985,-0.71063 0.70845,-1.25776 1.44618,-1.25776c0.73845,0 1.34887,0.54821 1.44647,1.25986c0.00897,0.06546 0.01361,8.9182 0.01361,8.98612c0,0.80638 -0.6537,1.46008 -1.46008,1.46008c-0.80638,0 -1.46008,-0.65371 -1.46008,-1.46008z" stroke-width="0"/></g></g></svg>