<svg version="1.1" xmlns="http://www.w3.org/2000/svg" xmlns:xlink="http://www.w3.org/1999/xlink" width="88" height="85.94644" viewBox="0,0,88,85.94644"><defs><linearGradient x1="276" y1="179.99999" x2="364" y2="179.99999" gradientUnits="userSpaceOnUse" id="color-1"><stop offset="0" stop-color="#80ff00"/><stop offset="1" stop-color="#ffd400"/></linearGradient></defs><g transform="translate(-276,-137.02678)"><g stroke-width="0" stroke-miterlimit="10"><path d="M276,196.7363c0,-14.72642 0,-35.64006 0,-44c0,-6.92392 6.51594,-15.70952 15.72857,-15.70952c17.96233,0 46.17621,0 56.33333,0c7.22674,0 15.9381,6.84832 15.9381,16.04286c0,14.68447 0,35.35339 0,43.66667c0,6.95194 -8.81732,15.79048 -16.10476,15.79048c-5.52557,0 -27.94524,0 -27.94524,0l-20.125,10.44643v-10.44643c0,0 -5.45364,0 -7.92976,0c-9.29899,0 -15.89524,-6.72217 -15.89524,-15.79048z" fill="url(#color-1)" stroke="none"/><path d="M313.04167,175.54166c0,-3.84298 3.11535,-6.95833 6.95833,-6.95833c3.84298,0 6.95833,3.11535 6.95833,6.95833c0,3.84298 -3.11535,6.95833 -6.95833,6.95833c-3.84298,0 -6.95833,-3.11535 -6.95833,-6.95833z" fill-opacity="0.50196" fill="#ffffff" stroke="#5f803e"/><path d="M290.875,175.54165c0,-3.84298 3.11535,-6.95833 6.95833,-6.95833c3.84298,0 6.95833,3.11535 6.95833,6.95833c0,3.84298 -3.11535,6.95834 -6.95833,6.95834c-3.84298,0 -6.95833,-3.11535 -6.95833,-6.95834z" fill-opacity="0.50196" fill="#ffffff" stroke="#5f803e"/><path d="M335.54167,175.54165c0,-3.84298 3.11535,-6.95833 6.95833,-6.95833c3.84298,0 6.95833,3.11535 6.95833,6.95833c0,3.84298 -3.11535,6.95834 -6.95833,6.95834c-3.84298,0 -6.95833,-3.11535 -6.95833,-6.95834z" fill-opacity="0.50196" fill="#ffffff" stroke="#5f803e"/></g></g></svg>