<svg version="1.1" xmlns="http://www.w3.org/2000/svg" xmlns:xlink="http://www.w3.org/1999/xlink" width="14.92308" height="14.92308" viewBox="0,0,14.92308,14.92308"><g transform="translate(-312.53846,-172.53846)"><g stroke-width="0" stroke-miterlimit="10"><path d="M312.53847,185.87727c0,-3.21421 0,-10.33794 0,-12c0,-0.67929 0.69269,-1.33881 1.3979,-1.33881c1.69334,0 8.83209,0 12,0c0.93586,0 1.52517,0.68501 1.52517,1.38427c0,1.66247 0,8.66726 0,11.90909c0,1.0225 -0.84343,1.62972 -1.66154,1.62972c-1.79953,0 -8.83589,0 -11.86364,0c-0.86105,0 -1.3979,-0.61401 -1.3979,-1.58427z" fill="#009cff" stroke="none"/><path d="M318.29545,185.37072v-4.86364h3.40909v4.86364z" fill="#ffffff" stroke="#e73838"/><path d="M315.31059,180.55252l4.68941,-5.92324l4.68941,5.92324z" fill="#ffffff" stroke="#e73838"/></g></g></svg>