<svg version="1.1" xmlns="http://www.w3.org/2000/svg" xmlns:xlink="http://www.w3.org/1999/xlink" width="15.56668" height="15.56666" viewBox="0,0,15.56668,15.56666"><g transform="translate(-312.21666,-172.21669)"><g stroke-width="0" stroke-miterlimit="10"><path d="M312.21666,180.00003c0,-4.29862 3.48472,-7.78333 7.78334,-7.78333c4.29861,0 7.78334,3.48472 7.78334,7.78333c0,4.29862 -3.48472,7.78333 -7.78334,7.78333c-4.29861,0 -7.78334,-3.48472 -7.78334,-7.78333z" fill="#dc2835" stroke="#80ff00"/><path d="M314.26,180.78444c0,-0.56453 0,-1.27714 0,-1.6c0,-0.32566 0.32109,-0.76442 0.68666,-0.76442c1.15791,0 7.35464,0 9.8,0c0.6155,0 0.99334,0.30195 0.99334,0.69775c0,0.56675 0,1.32594 0,1.66667c0,0.33567 -0.29698,0.79558 -0.79334,0.79558c-2.29368,0 -8.84484,0 -10.02222,0c-0.35498,0 -0.66444,-0.3521 -0.66444,-0.79558z" fill="#ffffff" stroke="#000000"/></g></g></svg>