<svg version="1.1" xmlns="http://www.w3.org/2000/svg" xmlns:xlink="http://www.w3.org/1999/xlink" width="15.56668" height="15.56666" viewBox="0,0,15.56668,15.56666"><g transform="translate(-312.21666,-172.21667)"><g stroke-miterlimit="10"><path d="M312.21666,180c0,-4.29862 3.48472,-7.78333 7.78334,-7.78333c4.29861,0 7.78334,3.48472 7.78334,7.78333c0,4.29862 -3.48472,7.78333 -7.78334,7.78333c-4.29861,0 -7.78334,-3.48472 -7.78334,-7.78333z" fill="#ffde00" stroke="#80ff00" stroke-width="0"/><path d="M315.05001,182.25345c0,-0.81411 0.03748,-1.03399 0.56501,-1.08465c0.97553,-0.09368 2.92117,0.59298 4.42666,0.59298c1.30041,0 3.10208,-0.56141 4.06811,-0.64604c0.75712,-0.06633 0.84022,0.16019 0.84022,1.17938c0,0.7386 -0.55836,1.48162 -0.99679,1.98097c-0.93849,1.06889 -2.37221,1.46903 -3.95321,1.46903c-1.60363,0 -3.14413,-0.44186 -4.07301,-1.55412c-0.41472,-0.4966 -0.87699,-1.22158 -0.87699,-1.93754z" fill="#956400" stroke="#80ff00" stroke-width="0"/><path d="M323.99643,181.95066c-0.74747,0.96311 -2.68289,1.74959 -3.99641,1.74959c-1.41764,0 -3.03333,-0.65531 -3.76609,-1.75163c-0.20978,-0.31387 1.89244,0.51459 3.88593,0.49942c2.12716,-0.01619 4.1536,-0.85433 3.87657,-0.49738z" fill="#ffffff" stroke="#80ff00" stroke-width="0"/><path d="M314.77852,180.16938c-0.29928,-0.34204 0.04275,-0.64133 0.04275,-0.64133l0.39224,-0.3383c1.19897,-0.60396 2.35271,-1.31695 3.71828,-1.46041c0,0 0.45263,-0.04115 0.49378,0.41148c0.04115,0.45263 -0.41148,0.49378 -0.41148,0.49378c-1.19224,0.08438 -2.25245,0.7932 -3.29392,1.30984l-0.30033,0.2677c0,0 -0.34204,0.29928 -0.64133,-0.04276z" fill="#956400" stroke="none" stroke-width="0.5"/><path d="M314.382,177.07961c-0.02261,-0.45393 0.43132,-0.47654 0.43132,-0.47654l0.5175,-0.02208c1.31509,0.26991 2.66231,0.42625 3.82245,1.16072c0,0 0.38056,0.24847 0.1321,0.62903c-0.24846,0.38056 -0.62903,0.1321 -0.62903,0.1321c-0.98753,-0.67331 -2.25881,-0.7749 -3.39619,-1.01562l-0.40162,0.02371c0,0 -0.45393,0.02261 -0.47654,-0.43132z" fill="#956400" stroke="none" stroke-width="0.5"/><path d="M324.58015,180.21214l-0.30033,-0.2677c-1.04147,-0.51664 -2.10167,-1.22546 -3.29392,-1.30984c0,0 -0.45263,-0.04115 -0.41148,-0.49378c0.04115,-0.45263 0.49378,-0.41148 0.49378,-0.41148c1.36557,0.14346 2.51931,0.85644 3.71828,1.46041l0.39224,0.3383c0,0 0.34204,0.29928 0.04275,0.64133c-0.29928,0.34204 -0.64133,0.04276 -0.64133,0.04276z" fill="#956400" stroke="none" stroke-width="0.5"/><path d="M325.14146,177.51093l-0.40161,-0.02371c-1.13738,0.24072 -2.40865,0.34231 -3.39619,1.01562c0,0 -0.38057,0.24847 -0.62903,-0.1321c-0.24846,-0.38057 0.1321,-0.62903 0.1321,-0.62903c1.16014,-0.73447 2.50737,-0.89081 3.82245,-1.16072l0.5175,0.02207c0,0 0.45393,0.02261 0.43132,0.47654c-0.02261,0.45393 -0.47654,0.43132 -0.47654,0.43132z" fill="#956400" stroke="none" stroke-width="0.5"/></g></g></svg>