<svg version="1.1" xmlns="http://www.w3.org/2000/svg" xmlns:xlink="http://www.w3.org/1999/xlink" width="14.70789" height="14.11267" viewBox="0,0,14.70789,14.11267"><g transform="translate(-312.64605,-172.69366)"><g stroke-miterlimit="10"><path d="M326.21271,186.80633c-3.40092,0 -10.66922,0 -12.49024,0c-0.81037,0 -1.35763,-0.51019 -0.92346,-1.33563c1.61118,-3.06309 5.50593,-10.46754 6.44521,-12.25328c0.39798,-0.7566 1.21353,-0.67128 1.62579,0.11255c0.91667,1.74277 4.54271,8.60809 6.23538,11.81245c0.53666,1.01597 0.18861,1.66391 -0.89271,1.66391z" fill="#ffde00" stroke="none" stroke-width="0" stroke-linecap="butt"/><path d="M319.2,184.90556c0,-0.42955 0.34822,-0.77778 0.77778,-0.77778c0.42955,0 0.77778,0.34822 0.77778,0.77778c0,0.42955 -0.34822,0.77778 -0.77778,0.77778c-0.42955,0 -0.77778,-0.34822 -0.77778,-0.77778z" fill="#000000" stroke="#797979" stroke-width="0" stroke-linecap="butt"/><path d="M320,176.12222v6.33333" fill="none" stroke="#000000" stroke-width="1.5" stroke-linecap="round"/></g></g></svg>