<svg version="1.1" xmlns="http://www.w3.org/2000/svg" xmlns:xlink="http://www.w3.org/1999/xlink" width="283.60955" height="162.16666" viewBox="0,0,283.60955,162.16666"><g transform="translate(-178.19523,-98.91667)"><g stroke-miterlimit="10"><path d="M178.94523,250.65c0,-31.49582 0,-127.84386 0,-142.5c0,-3.58673 4.87619,-8.48333 9.35478,-8.48333c23.31145,0 216.86282,0 263,0c6.23889,0 9.75477,4.95504 9.75477,10.48333c0,17.43473 0,110.0825 0,140.5c0,6.08819 -4.0445,9.68333 -9.25477,9.68333c-24.88028,0 -217.03369,0 -263,0c-6.30075,0 -9.85478,-3.59097 -9.85478,-9.68333z" fill-opacity="0.74902" fill="#d4fffe" stroke="#989898" stroke-width="1.5"/><text transform="translate(219.18099,121.31029) scale(0.45625,0.45625)" font-size="40" xml:space="preserve" fill="#989898" stroke="none" stroke-width="1" font-family="&quot;keifont&quot;, Sans Serif" font-weight="normal" text-anchor="start"><tspan x="0" dy="0">Setting</tspan></text><path d="M223.24644,147.68156v-13.78992h29.84141v13.78992z" fill="#00ff15" stroke="#989898" stroke-width="1.5"/><text transform="translate(190.77979,144.45489) scale(0.28729,0.28729)" font-size="40" xml:space="preserve" fill="#989898" stroke="none" stroke-width="1" font-family="&quot;keifont&quot;, Sans Serif" font-weight="normal" text-anchor="start"><tspan x="0" dy="0">BGM</tspan></text><path d="M195.50552,115.23804c0,-2.53614 2.05596,-4.59208 4.59209,-4.59208c2.53614,0 4.59209,2.05594 4.59209,4.59208c0,2.53614 -2.05596,4.5921 -4.59209,4.5921c-2.53614,0 -4.59209,-2.05595 -4.59209,-4.5921z" fill="none" stroke="#989898" stroke-width="3.5"/><path d="M198.53104,109.41699c0,0 0,-0.45389 0,-0.68325c0,-0.67772 0,-4.02022 0,-4.02022h3.13315c0,0 0,3.23953 0,3.94699c0,0.26016 0,0.74733 0,0.74733c0,0 -0.4177,-0.09797 -0.85733,-0.14998c-0.25688,-0.03039 -0.52124,-0.0453 -0.71413,-0.0453c-0.19941,0 -0.48388,0.01674 -0.74787,0.04871c-0.42624,0.05163 -0.81382,0.15573 -0.81382,0.15573z" fill="#989898" stroke-opacity="0.25098" stroke="#000000" stroke-width="0"/><path d="M199.34486,121.20933c0.26399,0.03197 0.54847,0.04871 0.74787,0.04871c0.19289,0 0.45725,-0.01492 0.71413,-0.04531c0.43963,-0.05201 0.85733,-0.14998 0.85733,-0.14998c0,0 0,0.48718 0,0.74733c0,0.70746 0,3.94699 0,3.94699h-3.13315c0,0 0,-3.3425 0,-4.02022c0,-0.22937 0,-0.68325 0,-0.68325c0,0 0.38758,0.10411 0.81382,0.15574z" fill="#989898" stroke-opacity="0.25098" stroke="#000000" stroke-width="0"/><path d="M205.91939,113.67146c0,0 0.45389,0 0.68326,0c0.67773,0 4.02023,0 4.02023,0v3.13314c0,0 -3.23953,0 -3.947,0c-0.26016,0 -0.74733,0 -0.74733,0c0,0 0.09797,-0.41769 0.14998,-0.85732c0.03039,-0.25688 0.04531,-0.52125 0.04531,-0.71414c0,-0.19941 -0.01674,-0.48388 -0.04871,-0.74787c-0.05163,-0.42624 -0.15574,-0.81382 -0.15574,-0.81382z" fill="#989898" stroke-opacity="0.25098" stroke="#000000" stroke-width="0"/><path d="M194.12148,114.48528c-0.03197,0.26399 -0.04871,0.54846 -0.04871,0.74787c0,0.19289 0.01491,0.45726 0.0453,0.71414c0.05201,0.43963 0.14998,0.85733 0.14998,0.85733c0,0 -0.48717,0 -0.74733,0c-0.70747,0 -3.94699,0 -3.94699,0v-3.13315c0,0 3.34251,0 4.02022,0c0.22937,0 0.68326,0 0.68326,0c0,0 -0.10412,0.38758 -0.15574,0.81382z" fill="#989898" stroke-opacity="0.25098" stroke="#000000" stroke-width="0"/><path d="M205.33031,118.23257c0,0 0.32094,0.32094 0.48314,0.48313c0.47923,0.47921 2.84273,2.84273 2.84273,2.84273l-2.21546,2.21547c0,0 -2.2907,-2.29069 -2.79095,-2.79095c-0.18397,-0.18395 -0.52844,-0.52844 -0.52844,-0.52844c0,0 0.36463,-0.22607 0.71227,-0.50016c0.20313,-0.16015 0.40062,-0.33655 0.53701,-0.47294c0.141,-0.141 0.33031,-0.35398 0.49438,-0.56327c0.26489,-0.3379 0.46534,-0.68557 0.46534,-0.68557z" fill="#989898" stroke-opacity="0.25098" stroke="#000000" stroke-width="0"/><path d="M195.32949,118.91814c0.16407,0.20928 0.35339,0.42227 0.49438,0.56327c0.13639,0.13639 0.33388,0.31279 0.537,0.47294c0.34764,0.27409 0.71227,0.50016 0.71227,0.50016c0,0 -0.34448,0.34449 -0.52844,0.52844c-0.50026,0.50025 -2.79095,2.79095 -2.79095,2.79095l-2.21547,-2.21547c0,0 2.36351,-2.36352 2.84273,-2.84273c0.16218,-0.16219 0.48314,-0.48313 0.48314,-0.48313c0,0 0.20043,0.34767 0.46533,0.68557z" fill="#989898" stroke-opacity="0.25098" stroke="#000000" stroke-width="0"/><path d="M204.86497,111.55506c-0.16407,-0.20928 -0.35337,-0.42227 -0.49438,-0.56327c-0.13639,-0.13639 -0.33389,-0.31277 -0.53701,-0.47293c-0.34764,-0.27409 -0.71227,-0.50017 -0.71227,-0.50017c0,0 0.34448,-0.34449 0.52844,-0.52844c0.50026,-0.50025 2.79095,-2.79095 2.79095,-2.79095l2.21546,2.21547c0,0 -2.36351,2.36351 -2.84273,2.84273c-0.16218,0.16219 -0.48314,0.48313 -0.48314,0.48313c0,0 -0.20044,-0.34767 -0.46533,-0.68557z" fill="#989898" stroke-opacity="0.25098" stroke="#000000" stroke-width="0"/><path d="M194.85947,112.24064c0,0 -0.32094,-0.32094 -0.48313,-0.48313c-0.47923,-0.47921 -2.84273,-2.84273 -2.84273,-2.84273l2.21546,-2.21547c0,0 2.29069,2.29069 2.79095,2.79095c0.18397,0.18395 0.52844,0.52844 0.52844,0.52844c0,0 -0.36463,0.22608 -0.71227,0.50017c-0.20313,0.16015 -0.40061,0.33654 -0.53701,0.47293c-0.141,0.141 -0.33032,0.35399 -0.49438,0.56327c-0.26489,0.3379 -0.46533,0.68558 -0.46533,0.68558z" fill="#989898" stroke-opacity="0.25098" stroke="#000000" stroke-width="0"/><path d="M224.46934,146.44746v-11.32171h13.6978v11.32171z" fill="#ffffff" stroke="#d2d2d2" stroke-width="1"/><text transform="translate(262.14471,144.45489) scale(0.28729,0.28729)" font-size="40" xml:space="preserve" fill="#989898" stroke="none" stroke-width="1" font-family="&quot;keifont&quot;, Sans Serif" font-weight="normal" text-anchor="start"><tspan x="0" dy="0">背景アニメーション</tspan></text><path d="M367.52977,147.68156v-13.78992h29.84141v13.78992z" fill="#00ff15" stroke="#989898" stroke-width="1.5"/><path d="M368.75267,146.44746v-11.32171h13.6978v11.32171z" fill="#ffffff" stroke="#d2d2d2" stroke-width="1"/></g></g></svg>