<svg version="1.1" xmlns="http://www.w3.org/2000/svg" xmlns:xlink="http://www.w3.org/1999/xlink" width="14.09079" height="15.55782" viewBox="0,0,14.09079,15.55782"><g transform="translate(-312.95461,-172.2211)"><g stroke-miterlimit="10"><path d="M317.31533,179.04285c0.14103,0.06511 0.28791,0.20073 0.28791,0.48323c0,0.54335 -0.54335,0.54335 -0.54335,0.54335l-0.49505,-0.21733c-1.58297,-2.11279 -3.61023,-4.3621 -3.61023,-7.08765c0,0 0,-0.54335 0.54335,-0.54335c0.54335,0 0.54335,0.54335 0.54335,0.54335c0,2.36902 1.86384,4.42531 3.27403,6.27841z" fill="#65d745" stroke="none" stroke-width="0.5"/><path d="M317.30138,185.0018c0,-1.53375 1.24336,-2.7771 2.7771,-2.7771c1.53375,0 2.7771,1.24336 2.7771,2.7771c0,1.53375 -1.24336,2.77712 -2.7771,2.77712c-1.53375,0 -2.7771,-1.24336 -2.7771,-2.77712z" fill="#60208e" stroke="#2132d0" stroke-width="0"/><path d="M314.22242,179.04311c0,-1.53375 1.24336,-2.7771 2.7771,-2.7771c1.53375,0 2.7771,1.24336 2.7771,2.7771c0,1.53375 -1.24336,2.7771 -2.7771,2.7771c-1.53375,0 -2.7771,-1.24336 -2.7771,-2.7771z" fill="#a95ddf" stroke="#2132d0" stroke-width="0"/><path d="M317.72397,177.59418c0,-1.53375 1.24336,-2.7771 2.7771,-2.7771c1.53375,0 2.7771,1.24336 2.7771,2.7771c0,1.53375 -1.24336,2.7771 -2.7771,2.7771c-1.53375,0 -2.7771,-1.24336 -2.7771,-2.7771z" fill="#bd80e8" stroke="#2132d0" stroke-width="0"/><path d="M320.56146,179.8702c0,-1.53375 1.24336,-2.7771 2.7771,-2.7771c1.53375,0 2.7771,1.24336 2.7771,2.7771c0,1.53375 -1.24336,2.77712 -2.7771,2.77712c-1.53375,0 -2.7771,-1.24336 -2.7771,-2.77712z" fill="#933dd1" stroke="#2132d0" stroke-width="0"/><path d="M313.92055,183.14839c0,-1.53375 1.24336,-2.7771 2.7771,-2.7771c1.53375,0 2.7771,1.24336 2.7771,2.7771c0,1.53375 -1.24336,2.7771 -2.7771,2.7771c-1.53375,0 -2.7771,-1.24336 -2.7771,-2.7771z" fill="#933dd1" stroke="#2132d0" stroke-width="0"/><path d="M317.05989,181.63909c0,-1.53375 1.24336,-2.7771 2.7771,-2.7771c1.53375,0 2.7771,1.24336 2.7771,2.7771c0,1.53375 -1.24336,2.7771 -2.7771,2.7771c-1.53375,0 -2.7771,-1.24336 -2.7771,-2.7771z" fill="#a95ddf" stroke="#2132d0" stroke-width="0"/><path d="M321.49118,184.63957c0,-1.53375 1.24336,-2.7771 2.7771,-2.7771c1.53375,0 2.7771,1.24336 2.7771,2.7771c0,1.53375 -1.24336,2.7771 -2.7771,2.7771c-1.53375,0 -2.7771,-1.24336 -2.7771,-2.7771z" fill="#a95ddf" stroke="#2132d0" stroke-width="0"/></g></g></svg>