<svg version="1.1" xmlns="http://www.w3.org/2000/svg" xmlns:xlink="http://www.w3.org/1999/xlink" width="15.28192" height="14.27672" viewBox="0,0,15.28192,14.27672"><g transform="translate(-312.28176,-172.46164)"><g stroke="none" stroke-width="0" stroke-miterlimit="10"><path d="M320.42919,179.61221c0,-2.07245 1.02159,-6.19857 1.5278,-6.19857c0.50017,0 1.49157,4.12612 1.49157,6.19857c0,2.08505 -1.04188,6.27416 -1.55196,6.27416c-0.49599,0 -1.46741,-4.18911 -1.46741,-6.27416z" fill="#fca703"/><path d="M321.90478,181.14287c-1.86921,0 -5.59071,-1.01022 -5.59071,-1.51079c0,-0.4946 3.7215,-1.47496 5.59071,-1.47496c1.88058,0 5.65889,1.03028 5.65889,1.53467c0,0.49047 -3.77831,1.45108 -5.65889,1.45108z" fill="#fca703"/><path d="M315.11224,176.35658c-0.94636,0 -2.83049,-0.70863 -2.83049,-1.05977c0,-0.34695 1.88413,-1.03464 2.83049,-1.03464c0.95211,0 2.865,0.72271 2.865,1.07652c0,0.34405 -1.91289,1.01788 -2.865,1.01788z" fill="#ffde00"/><path d="M314.0823,175.29212c0,-0.94636 0.70863,-2.83049 1.05977,-2.83049c0.34695,0 1.03464,1.88413 1.03464,2.83049c0,0.95211 -0.72271,2.865 -1.07652,2.865c-0.34405,0 -1.01788,-1.9129 -1.01788,-2.865z" fill="#ffde00"/><path d="M316.89681,184.93782c-0.94636,0 -2.83049,-0.70863 -2.83049,-1.05977c0,-0.34695 1.88412,-1.03464 2.83049,-1.03464c0.95211,0 2.865,0.72271 2.865,1.07652c0,0.34404 -1.91289,1.01788 -2.865,1.01788z" fill="#ffde00"/><path d="M315.86686,183.87336c0,-0.94636 0.70864,-2.83049 1.05977,-2.83049c0.34695,0 1.03463,1.88413 1.03463,2.83049c0,0.9521 -0.72271,2.865 -1.07652,2.865c-0.34404,0 -1.01788,-1.9129 -1.01788,-2.865z" fill="#ffde00"/></g></g></svg>