<svg version="1.1" xmlns="http://www.w3.org/2000/svg" xmlns:xlink="http://www.w3.org/1999/xlink" width="59.05555" height="54.18976" viewBox="0,0,59.05555,54.18976"><defs><linearGradient x1="291.22222" y1="180" x2="315.22222" y2="180" gradientUnits="userSpaceOnUse" id="color-1"><stop offset="0" stop-color="#b3b3b3"/><stop offset="1" stop-color="#8b8b8b"/></linearGradient><linearGradient x1="291.22222" y1="180" x2="315.22222" y2="180" gradientUnits="userSpaceOnUse" id="color-2"><stop offset="0" stop-color="#d9d9d9"/><stop offset="1" stop-color="#ffffff"/></linearGradient></defs><g transform="translate(-290.47222,-167.25)"><g stroke-miterlimit="10"><path d="M291.22222,180c0,-6.62742 5.37258,-12 12,-12c0.33783,0 34.22796,0.01396 34.55872,0.04134c6.15802,0.50966 10.99683,5.66908 10.99683,11.95866c0,6.31978 -4.88538,11.49852 -11.08561,11.96568c-0.30182,0.02274 -34.16231,0.03432 -34.46994,0.03432c-6.62742,0 -12,-5.37258 -12,-12z" fill="url(#color-1)" stroke="url(#color-2)" stroke-width="1.5"/><text transform="translate(299,183.02859) scale(0.2625,0.2625)" font-size="40" xml:space="preserve" fill="#ffffff" stroke="none" stroke-width="1" font-family="&quot;MS Reference Sans Serif&quot;, Sans Serif" font-weight="normal" text-anchor="start"><tspan x="0" dy="0">お知らせ</tspan></text><path d="M298.29465,218.63626c0,-2.34509 0,-11.83549 0,-16.16064c0,-1.32623 0.68141,-2.16681 1.87723,-2.16681c3.14463,0 17.06901,0 17.06901,0l4.31581,-4.32323l4.5316,4.32323c0,0 15.20258,0 17.09778,0c0.95859,0 1.71928,1.0088 1.71928,1.85801c0,2.14864 0,11.52839 0,16.05771c0,1.49784 -0.62139,2.46523 -1.43156,2.46523c-3.96194,0 -35.47788,0 -43.51771,0c-1.19597,0 -1.66144,-1.02782 -1.66144,-2.05349z" fill-opacity="0.50196" fill="#ffffff" stroke="#989898" stroke-width="1.5"/><text transform="translate(311.60001,213.171) scale(0.25,0.25)" font-size="40" xml:space="preserve" fill="#989898" stroke="none" stroke-width="1" font-family="&quot;MS Reference Sans Serif&quot;, Sans Serif" font-weight="normal" text-anchor="start"><tspan x="0" dy="0">告知</tspan></text></g></g></svg>