<svg version="1.1" xmlns="http://www.w3.org/2000/svg" xmlns:xlink="http://www.w3.org/1999/xlink" width="15.56668" height="15.56666" viewBox="0,0,15.56668,15.56666"><g transform="translate(-312.21666,-172.21667)"><g stroke-miterlimit="10"><path d="M312.21666,180c0,-4.29862 3.48472,-7.78333 7.78334,-7.78333c4.29861,0 7.78334,3.48472 7.78334,7.78333c0,4.29862 -3.48472,7.78333 -7.78334,7.78333c-4.29861,0 -7.78334,-3.48472 -7.78334,-7.78333z" fill="#ffde00" stroke="#80ff00" stroke-width="0" stroke-linecap="butt"/><path d="M324.78402,181.90852c0,0 -0.45534,1.38469 -1.17469,2.11238c-0.90079,0.91122 -2.56171,1.29482 -3.4402,1.29482c-1.09454,0 -2.53069,-0.42248 -3.54867,-1.48227c-0.56807,-0.59137 -1.1741,-1.92717 -1.1741,-1.92717c0,0 2.27646,0.56385 4.67447,0.54723c2.5588,-0.01773 4.6632,-0.54499 4.6632,-0.54499z" fill="#956400" stroke="#80ff00" stroke-width="0" stroke-linecap="butt"/><path d="M317.93183,186.07919v-3.54454c0,0 1.46103,0.22606 2.18991,0.22606c0.72669,0 2.17682,-0.22606 2.17682,-0.22606v3.54454z" fill="#eb2a7b" stroke="#989898" stroke-width="0" stroke-linecap="butt"/><path d="M317.93183,185.94352c0,-0.94149 0.97753,-1.70472 2.18336,-1.70472c1.20584,0 2.18335,0.76324 2.18335,1.70472c0,0.94149 -0.97753,1.70472 -2.18335,1.70472c-1.20584,0 -2.18336,-0.76324 -2.18336,-1.70472z" fill="#eb2a7b" stroke="#989898" stroke-width="0" stroke-linecap="butt"/><path d="M320.11519,185.39038v-2.34788" fill="none" stroke="#c22567" stroke-width="0.5" stroke-linecap="round"/><path d="M314.77852,180.16938c-0.29928,-0.34204 0.04275,-0.64133 0.04275,-0.64133l0.39224,-0.3383c1.19897,-0.60396 2.35271,-1.31695 3.71828,-1.46041c0,0 0.45263,-0.04115 0.49378,0.41148c0.04115,0.45263 -0.41148,0.49378 -0.41148,0.49378c-1.19224,0.08438 -2.25245,0.7932 -3.29392,1.30984l-0.30033,0.2677c0,0 -0.34204,0.29928 -0.64133,-0.04276z" fill="#956400" stroke="none" stroke-width="0.5" stroke-linecap="butt"/><path d="M314.382,177.07961c-0.02261,-0.45393 0.43132,-0.47654 0.43132,-0.47654l0.5175,-0.02208c1.31509,0.26991 2.66231,0.42625 3.82245,1.16072c0,0 0.38056,0.24847 0.1321,0.62903c-0.24846,0.38056 -0.62903,0.1321 -0.62903,0.1321c-0.98753,-0.67331 -2.25881,-0.7749 -3.39619,-1.01562l-0.40162,0.02371c0,0 -0.45393,0.02261 -0.47654,-0.43132z" fill="#956400" stroke="none" stroke-width="0.5" stroke-linecap="butt"/><path d="M324.58015,180.21214l-0.30033,-0.2677c-1.04147,-0.51664 -2.10167,-1.22546 -3.29392,-1.30984c0,0 -0.45263,-0.04115 -0.41148,-0.49378c0.04115,-0.45263 0.49378,-0.41148 0.49378,-0.41148c1.36557,0.14346 2.51931,0.85644 3.71828,1.46041l0.39224,0.3383c0,0 0.34204,0.29928 0.04275,0.64133c-0.29928,0.34204 -0.64133,0.04276 -0.64133,0.04276z" fill="#956400" stroke="none" stroke-width="0.5" stroke-linecap="butt"/><path d="M325.14146,177.51093l-0.40161,-0.02371c-1.13738,0.24072 -2.40865,0.34231 -3.39619,1.01562c0,0 -0.38057,0.24847 -0.62903,-0.1321c-0.24846,-0.38057 0.1321,-0.62903 0.1321,-0.62903c1.16014,-0.73447 2.50737,-0.89081 3.82245,-1.16072l0.5175,0.02207c0,0 0.45393,0.02261 0.43132,0.47654c-0.02261,0.45393 -0.47654,0.43132 -0.47654,0.43132z" fill="#956400" stroke="none" stroke-width="0.5" stroke-linecap="butt"/></g></g></svg>