<svg version="1.1" xmlns="http://www.w3.org/2000/svg" xmlns:xlink="http://www.w3.org/1999/xlink" width="15.56668" height="15.56666" viewBox="0,0,15.56668,15.56666"><g transform="translate(-312.21666,-172.21667)"><g stroke-miterlimit="10"><path d="M312.21666,180c0,-4.29862 3.48472,-7.78333 7.78334,-7.78333c4.29861,0 7.78334,3.48472 7.78334,7.78333c0,4.29862 -3.48472,7.78333 -7.78334,7.78333c-4.29861,0 -7.78334,-3.48472 -7.78334,-7.78333z" fill="#ffde00" stroke="#80ff00" stroke-width="0"/><path d="M317.07356,185.97443c-0.73356,-0.73356 -0.89792,-0.96546 -0.46823,-1.48645c0.7946,-0.96343 3.16647,-2.09784 4.52301,-3.45438c1.17175,-1.17175 2.28931,-3.30103 3.0835,-4.24774c0.62245,-0.74198 0.90143,-0.61275 1.81978,0.3056c0.66553,0.66553 0.83191,1.83815 0.88681,2.68315c0.1175,1.80877 -0.81382,3.4612 -2.2384,4.88577c-1.44497,1.44497 -3.2312,2.43491 -5.0704,2.26968c-0.82115,-0.07378 -1.89094,-0.3105 -2.53607,-0.95562z" fill="#956400" stroke="#80ff00" stroke-width="0"/><path d="M324.86201,177.64031c0.1943,1.54134 -0.84096,3.99394 -2.02453,5.1775c-1.27738,1.27738 -3.32369,2.14274 -4.97181,1.81515c-0.47184,-0.09379 2.16888,-1.24153 3.95147,-3.05146c1.90211,-1.93129 2.97285,-4.51246 3.04486,-3.9412z" fill="#ffffff" stroke="#80ff00" stroke-width="0"/><path d="M315.6953,183.05996c-0.45348,-0.03024 -0.42326,-0.48372 -0.42326,-0.48372l0.03814,-0.51657c0.42073,-1.27487 0.73239,-2.59484 1.59656,-3.66188c0,0 0.29096,-0.34916 0.64011,-0.0582c0.34915,0.29096 0.0582,0.64012 0.0582,0.64012c-0.78337,0.9027 -1.03185,2.1536 -1.40296,3.25535l-0.02308,0.40166c0,0 -0.03024,0.45348 -0.48372,0.42325z" fill="#956400" stroke="none" stroke-width="0.5"/><path d="M313.23012,181.15554c-0.33697,-0.30499 -0.03197,-0.64195 -0.03197,-0.64195l0.35031,-0.38154c1.12077,-0.73906 2.18394,-1.58114 3.52364,-1.88213c0,0 0.44479,-0.0934 0.5382,0.35139c0.09341,0.44478 -0.35138,0.5382 -0.35138,0.5382c-1.17439,0.22218 -2.14515,1.04928 -3.11962,1.68331l-0.26722,0.30076c0,0 -0.30498,0.33696 -0.64195,0.03197z" fill="#956400" stroke="none" stroke-width="0.5"/><path d="M322.65634,176.15939l-0.40166,0.02308c-1.10175,0.37111 -2.35264,0.61957 -3.25535,1.40295c0,0 -0.34915,0.29096 -0.64011,-0.0582c-0.29096,-0.34915 0.05819,-0.64011 0.05819,-0.64011c1.06705,-0.86416 2.38702,-1.17583 3.66189,-1.59655l0.51657,-0.03814c0,0 0.45349,-0.03024 0.48372,0.42326c0.03024,0.45348 -0.42326,0.48372 -0.42326,0.48372z" fill="#956400" stroke="none" stroke-width="0.5"/><path d="M321.1432,173.85244l-0.30075,0.26721c-0.63403,0.97447 -1.46112,1.94522 -1.68332,3.11962c0,0 -0.09341,0.4448 -0.5382,0.35138c-0.44479,-0.09341 -0.35138,-0.5382 -0.35138,-0.5382c0.301,-1.33969 1.14308,-2.40288 1.88213,-3.52363l0.38153,-0.35032c0,0 0.33697,-0.30499 0.64195,0.03197c0.30499,0.33696 -0.03197,0.64195 -0.03197,0.64195z" fill="#956400" stroke="none" stroke-width="0.5"/><path d="M313.18491,184.96108c0,-1.19485 1.90096,-3.85962 1.90096,-3.85962c0,0 1.90096,2.66477 1.90096,3.85962c0,1.19485 -0.85109,2.16346 -1.90096,2.16346c-1.04987,0 -1.90096,-0.96861 -1.90096,-2.16346z" fill="#00cfff" stroke="none" stroke-width="0"/><path d="M324.7408,177.3902c-1.13526,-0.37264 -3.07427,-3.00985 -3.07427,-3.00985c0,0 3.12472,-0.97509 4.25997,-0.60245c1.13526,0.37264 1.79013,1.48336 1.46271,2.48087c-0.32742,0.99751 -1.51315,1.50407 -2.64841,1.13143z" fill="#00cfff" stroke="none" stroke-width="0"/></g></g></svg>