<svg version="1.1" xmlns="http://www.w3.org/2000/svg" xmlns:xlink="http://www.w3.org/1999/xlink" width="15.56668" height="15.56666" viewBox="0,0,15.56668,15.56666"><g transform="translate(-312.21666,-172.21668)"><g stroke="#80ff00" stroke-width="0" stroke-miterlimit="10"><path d="M312.21666,180.00002c0,-4.29862 3.48472,-7.78333 7.78334,-7.78333c4.29861,0 7.78334,3.48472 7.78334,7.78333c0,4.29862 -3.48472,7.78333 -7.78334,7.78333c-4.29861,0 -7.78334,-3.48472 -7.78334,-7.78333z" fill="#ffde00"/><path d="M318.58975,177.94512c0,0.81002 -0.50511,1.46667 -1.1282,1.46667c-0.62309,0 -1.12821,-0.65664 -1.12821,-1.46667c0,-0.81002 0.50512,-1.46667 1.12821,-1.46667c0.62309,0 1.1282,0.65665 1.1282,1.46667z" fill="#956400"/><path d="M323.65641,177.99057c0,0.81002 -0.50511,1.46667 -1.1282,1.46667c-0.62309,0 -1.12821,-0.65664 -1.12821,-1.46667c0,-0.81002 0.50512,-1.46667 1.12821,-1.46667c0.62309,0 1.1282,0.65665 1.1282,1.46667z" fill="#956400"/><path d="M323.99643,182.63247c-0.74747,0.96311 -2.68289,1.74959 -3.99641,1.74959c-1.41764,0 -3.03333,-0.65531 -3.76609,-1.75163c-0.20978,-0.31387 1.89244,0.51459 3.88593,0.49942c2.12716,-0.01619 4.1536,-0.85433 3.87657,-0.49738z" fill="#956400"/></g></g></svg>