<svg version="1.1" xmlns="http://www.w3.org/2000/svg" xmlns:xlink="http://www.w3.org/1999/xlink" width="441.61719" height="120.66072" viewBox="0,0,441.61719,120.66072"><g transform="translate(-99.34636,-139.74747)"><g stroke-miterlimit="10"><path d="M213.50071,255.05121c0,-4.69017 0,-23.67098 0,-32.32128c0,-2.65246 3.15772,-4.33362 8.6993,-4.33362c14.57264,0 79.1,0 79.1,0l20,-8.64646l21,8.64646c0,0 70.4507,0 79.23333,0c4.44223,0 7.96737,2.0176 7.96737,3.71601c0,4.29729 0,23.05679 0,32.11542c0,2.99567 -2.87965,4.93045 -6.63403,4.93045c-18.36012,0 -164.40906,0 -201.66666,0c-5.54226,0 -7.6993,-2.05564 -7.6993,-4.10698z" fill-opacity="0.50196" fill="#ffffff" stroke="#989898" stroke-width="2.5"/><text transform="translate(243.4636,244.38943) scale(0.5,0.5)" font-size="40" xml:space="preserve" fill="#989898" stroke="none" stroke-width="1" font-family="&quot;MS Reference Sans Serif&quot;, Sans Serif" font-weight="normal" text-anchor="start"><tspan x="0" dy="0">Online EM-Chat</tspan></text><text transform="translate(105.8881,199.26877) scale(1.54009,1.54009)" font-size="40" xml:space="preserve" fill="#5f803e" stroke="#5f803e" stroke-width="3" font-family="&quot;PixelMplus12&quot;, Sans Serif" font-weight="400" text-anchor="start"><tspan x="0" dy="0">Online EM-Chat</tspan></text><text transform="translate(102.88857,196.26877) scale(1.54009,1.54009)" font-size="40" xml:space="preserve" fill="#75e32c" stroke="#75e32c" stroke-width="3" font-family="&quot;PixelMplus12&quot;, Sans Serif" font-weight="400" text-anchor="start"><tspan x="0" dy="0">Online EM-Chat</tspan></text><text transform="translate(102.8874,196.48108) scale(1.54009,1.54009)" font-size="40" xml:space="preserve" fill="#ffffff" stroke="#67ff00" stroke-width="1" font-family="&quot;PixelMplus12&quot;, Sans Serif" font-weight="400" text-anchor="start"><tspan x="0" dy="0">Online EM-Chat</tspan></text><path d="M102.88857,214.74985v-73.92432h431.2252v73.92432z" fill="none" stroke="#989898" stroke-width="0"/></g></g></svg>