<svg version="1.1" xmlns="http://www.w3.org/2000/svg" xmlns:xlink="http://www.w3.org/1999/xlink" width="13.63193" height="15.55564" viewBox="0,0,13.63193,15.55564"><g transform="translate(-313.18403,-172.22218)"><g stroke-miterlimit="10"><path d="M319.64416,178.5215c-0.58369,0 -0.58369,-0.58369 -0.58369,-0.58369v-0.0449c0,-2.01408 -0.12136,-3.81149 1.20952,-5.44322c0,0 0.36962,-0.45175 0.82137,-0.08214c0.45175,0.36962 0.08214,0.82137 0.08214,0.82137c-1.13267,1.37955 -0.94565,2.98718 -0.94565,4.70399v0.0449c0,0 0,0.58369 -0.58369,0.58369z" fill="#805512" stroke="none" stroke-width="0.5"/><path d="M313.19302,181.42654c0,-1.89469 -0.19684,-4.17438 1.25176,-5.31084c0.64918,-0.50929 1.89537,-0.4505 3.02844,-0.0986c0.90463,0.28095 1.68436,0.83012 2.41718,0.83012c0.96063,0 1.91393,-0.56785 2.93491,-0.83599c1.13222,-0.29735 2.31422,-0.2674 2.96,0.42405c1.01412,1.08584 0.5598,3.57837 0.5598,5.12595c0,1.06579 -0.55668,2.28185 -1.03944,3.24899c-0.67229,1.34677 -1.47475,2.33734 -2.85964,2.89053c-0.81343,0.32493 -1.75886,-0.48272 -2.70122,-0.48272c-1.08068,0 -2.05306,0.75092 -2.95686,0.33038c-1.16463,-0.5419 -1.84364,-1.56084 -2.49676,-2.71846c-0.57482,-1.01883 -1.09814,-2.26963 -1.09814,-3.4034z" fill="#dc2835" stroke="#2132d0" stroke-width="0"/><path d="M323.39071,174.02043c1.09744,-0.12692 3.37741,0.44218 3.42449,0.84937c0.04653,0.40234 -2.04618,1.45249 -3.14362,1.5794c-1.10412,0.12769 -3.41932,-0.45388 -3.46676,-0.86418c-0.04613,-0.39898 2.08179,-1.43691 3.18589,-1.5646z" fill="#7daf44" stroke="none" stroke-width="0"/></g></g></svg>