<svg version="1.1" xmlns="http://www.w3.org/2000/svg" xmlns:xlink="http://www.w3.org/1999/xlink" width="76.08383" height="28.08178" viewBox="0,0,76.08383,28.08178"><defs><linearGradient x1="282.70809" y1="180" x2="357.29192" y2="180" gradientUnits="userSpaceOnUse" id="color-1"><stop offset="0" stop-color="#b3b3b3"/><stop offset="1" stop-color="#6d6d6d"/></linearGradient></defs><g transform="translate(-281.95809,-165.95911)"><g stroke-miterlimit="10"><path d="M282.70809,188.71779c0,-3.0952 0,-12.00991 0,-17.49752c0,-2.65742 1.94138,-4.51116 5.177,-4.51116c14.38057,0 54.32641,0 63.02204,0c3.25927,0 6.38479,2.93347 6.38479,5.28539c0,2.97803 0,10.67303 0,15.94907c0,3.08798 -2.1205,5.34732 -4.52664,5.34732c-7.74577,0 -49.72477,0 -64.72533,0c-3.33112,0 -5.33184,-2.47895 -5.33184,-4.5731z" fill="url(#color-1)" stroke="#b9b9b9" stroke-width="1.5"/><text transform="translate(305.91667,184.06216) scale(0.35208,0.35208)" font-size="40" xml:space="preserve" fill="#ffffff" stroke="none" stroke-width="1" font-family="&quot;MS Reference Sans Serif&quot;, Sans Serif" font-weight="normal" text-anchor="start"><tspan x="0" dy="0">同意</tspan></text></g></g></svg>