<svg version="1.1" xmlns="http://www.w3.org/2000/svg" xmlns:xlink="http://www.w3.org/1999/xlink" width="15.56668" height="15.92765" viewBox="0,0,15.56668,15.92765"><g transform="translate(-312.21666,-172.21667)"><g stroke-miterlimit="10"><path d="M312.21666,180c0,-4.29862 3.48472,-7.78333 7.78334,-7.78333c4.29861,0 7.78334,3.48472 7.78334,7.78333c0,4.29862 -3.48472,7.78333 -7.78334,7.78333c-4.29861,0 -7.78334,-3.48472 -7.78334,-7.78333z" fill="#ffde00" stroke="#80ff00" stroke-width="0" stroke-linecap="butt"/><path d="M314.26939,179.05085c0.26773,-0.82367 0.98357,-1.24814 1.69892,-1.48261c0.98027,-0.32131 1.83762,0.07303 2.56391,0.706c0.1945,0.16951 0.80868,0.85195 0.49968,1.11946c-0.55737,0.48252 -0.93542,-0.77244 -1.44311,-0.90232c-1.2385,-0.31685 -1.96108,-0.1798 -2.67214,0.89288c-0.00203,0.00618 -0.00419,0.0123 -0.00649,0.01834c0.00084,0.09738 -0.05757,0.1575 -0.14013,0.18265c-0.04673,0.03219 -0.10083,0.05244 -0.1592,0.05675c-0.19313,0.01427 -0.35992,-0.15125 -0.37254,-0.36972c-0.00218,-0.03773 0.00038,-0.07457 0.00711,-0.10978c0.00347,-0.03521 0.01126,-0.07243 0.024,-0.11164z" fill="#956400" stroke="none" stroke-width="0.5" stroke-linecap="butt"/><path d="M325.79239,181.47224c0.25769,0.12824 0.12885,0.38473 0.12885,0.38473l-0.09884,0.19635c-0.15931,0.29063 -0.31534,0.55612 -0.52285,0.81556c-0.96941,1.17865 -2.46886,2.5276 -4.07428,2.70324c-0.66197,0.07242 -1.37421,0.00177 -2.04053,0.00138c-1.01873,-0.078 -2.11084,-0.27174 -2.91159,-0.98789c-0.36097,-0.32284 -0.63416,-0.73386 -0.92783,-1.11383c-0.37865,-0.48992 -0.84118,-0.92995 -0.99296,-1.53811c0,0 -0.06478,-0.27942 0.21595,-0.3439c0.28073,-0.06448 0.34551,0.21494 0.34551,0.21494c0.103,0.49984 0.57964,0.91808 0.88856,1.31783c0.69858,0.90397 1.3455,1.49012 2.46558,1.81973c0.28705,0.08447 0.64207,0.03541 0.93889,0.05813c0.64024,-0.0004 1.32151,0.06702 1.95771,0.00138c1.44399,-0.14896 2.8223,-1.44107 3.68702,-2.49364c0.18699,-0.23133 0.32232,-0.46913 0.46495,-0.72946l0.08931,-0.1782c0,0 0.12885,-0.25649 0.38654,-0.12824z" fill="#956400" stroke="none" stroke-width="0.5" stroke-linecap="butt"/><path d="M320.98919,179.05085c0.26772,-0.82367 0.98357,-1.24814 1.69892,-1.48261c0.98028,-0.32131 1.83762,0.07303 2.56392,0.706c0.1945,0.16951 0.80869,0.85195 0.49968,1.11946c-0.55737,0.48252 -0.93541,-0.77244 -1.44311,-0.90232c-1.2385,-0.31685 -1.96109,-0.1798 -2.67215,0.89288c-0.00203,0.00618 -0.00419,0.0123 -0.00649,0.01834c0.00084,0.09738 -0.05757,0.1575 -0.14013,0.18265c-0.04673,0.03219 -0.10083,0.05244 -0.15921,0.05675c-0.19313,0.01427 -0.35992,-0.15125 -0.37255,-0.36972c-0.00218,-0.03773 0.00038,-0.07457 0.00711,-0.10978c0.00347,-0.03521 0.01126,-0.07243 0.024,-0.11164z" fill="#956400" stroke="none" stroke-width="0.5" stroke-linecap="butt"/><path d="M323.30307,187.40233l-1.66309,-2.20398c0,0 1.10647,-0.55971 1.58387,-0.91155c0.47446,-0.34969 1.32838,-1.13644 1.32838,-1.13644l1.60645,2.14735z" fill="#eb2a7b" stroke="#989898" stroke-width="0" stroke-linecap="butt"/><path d="M323.31818,187.42283c-0.58118,-0.78855 -0.41306,-1.89894 0.37549,-2.48011c0.78855,-0.58118 1.89894,-0.41306 2.48011,0.37549c0.58118,0.78855 0.41306,1.89894 -0.37549,2.48011c-0.78855,0.58118 -1.89894,0.41306 -2.48011,-0.37549z" fill="#eb2a7b" stroke="#989898" stroke-width="0" stroke-linecap="butt"/><path d="M323.3519,184.47897l1.39409,1.89154" fill="none" stroke="#c22567" stroke-width="0.5" stroke-linecap="round"/></g></g></svg>