<svg version="1.1" xmlns="http://www.w3.org/2000/svg" xmlns:xlink="http://www.w3.org/1999/xlink" width="15.56668" height="15.56666" viewBox="0,0,15.56668,15.56666"><g transform="translate(-312.21666,-172.21667)"><g stroke-miterlimit="10"><path d="M312.21666,180c0,-4.29862 3.48472,-7.78333 7.78334,-7.78333c4.29861,0 7.78334,3.48472 7.78334,7.78333c0,4.29862 -3.48472,7.78333 -7.78334,7.78333c-4.29861,0 -7.78334,-3.48472 -7.78334,-7.78333z" fill="#ffde00" stroke="#80ff00" stroke-width="0" stroke-linecap="butt"/><path d="M324.78402,181.90852c0,0 -0.45534,1.38469 -1.17469,2.11238c-0.90079,0.91122 -2.56171,1.29482 -3.4402,1.29482c-1.09454,0 -2.53069,-0.42248 -3.54867,-1.48227c-0.56807,-0.59137 -1.1741,-1.92717 -1.1741,-1.92717c0,0 2.27646,0.56385 4.67447,0.54723c2.5588,-0.01773 4.6632,-0.54499 4.6632,-0.54499z" fill="#956400" stroke="#80ff00" stroke-width="0" stroke-linecap="butt"/><path d="M317.93183,186.07919v-3.54454c0,0 1.46103,0.22606 2.18991,0.22606c0.72669,0 2.17682,-0.22606 2.17682,-0.22606v3.54454z" fill="#eb2a7b" stroke="#989898" stroke-width="0" stroke-linecap="butt"/><path d="M317.93183,185.94352c0,-0.94149 0.97753,-1.70472 2.18336,-1.70472c1.20584,0 2.18335,0.76324 2.18335,1.70472c0,0.94149 -0.97753,1.70472 -2.18335,1.70472c-1.20584,0 -2.18336,-0.76324 -2.18336,-1.70472z" fill="#eb2a7b" stroke="#989898" stroke-width="0" stroke-linecap="butt"/><path d="M320.11519,185.39038v-2.34788" fill="none" stroke="#c22567" stroke-width="0.5" stroke-linecap="round"/><path d="M318.58976,177.94511c0,0.81002 -0.50511,1.46667 -1.1282,1.46667c-0.62309,0 -1.12821,-0.65664 -1.12821,-1.46667c0,-0.81002 0.50512,-1.46667 1.12821,-1.46667c0.62309,0 1.1282,0.65665 1.1282,1.46667z" fill="#956400" stroke="#80ff00" stroke-width="0" stroke-linecap="butt"/><path d="M323.65641,177.94511c0,0.81002 -0.50511,1.46667 -1.1282,1.46667c-0.62309,0 -1.12821,-0.65664 -1.12821,-1.46667c0,-0.81002 0.50512,-1.46667 1.12821,-1.46667c0.62309,0 1.1282,0.65665 1.1282,1.46667z" fill="#956400" stroke="#80ff00" stroke-width="0" stroke-linecap="butt"/></g></g></svg>