<svg version="1.1" xmlns="http://www.w3.org/2000/svg" xmlns:xlink="http://www.w3.org/1999/xlink" width="2.92015" height="16.18138" viewBox="0,0,2.92015,16.18138"><g transform="translate(-318.53992,-171.90931)"><g fill="#e73838" stroke="none" stroke-width="0" stroke-miterlimit="10"><path d="M318.53992,186.63061c0,-0.80638 0.65371,-1.46008 1.46008,-1.46008c0.80638,0 1.46008,0.6537 1.46008,1.46008c0,0.80638 -0.6537,1.46008 -1.46008,1.46008c-0.80638,0 -1.46008,-0.65371 -1.46008,-1.46008z"/><path d="M318.53992,182.15529c0,-0.06865 0.00474,-8.9221 0.0139,-8.98822c0.0985,-0.71063 0.70845,-1.25776 1.44618,-1.25776c0.73845,0 1.34887,0.54821 1.44647,1.25986c0.00897,0.06546 0.01361,8.9182 0.01361,8.98612c0,0.80638 -0.6537,1.46008 -1.46008,1.46008c-0.80638,0 -1.46008,-0.65371 -1.46008,-1.46008z"/></g></g></svg>