<svg version="1.1" xmlns="http://www.w3.org/2000/svg" xmlns:xlink="http://www.w3.org/1999/xlink" width="15.56668" height="15.56666" viewBox="0,0,15.56668,15.56666"><g transform="translate(-312.21666,-172.21671)"><g stroke-miterlimit="10"><path d="M312.21666,180.00004c0,-4.29862 3.48472,-7.78333 7.78334,-7.78333c4.29861,0 7.78334,3.48472 7.78334,7.78333c0,4.29862 -3.48472,7.78333 -7.78334,7.78333c-4.29861,0 -7.78334,-3.48472 -7.78334,-7.78333z" fill="#ffde00" stroke="#80ff00" stroke-width="0"/><path d="M318.58975,178.20829c0,0.81002 -0.50511,1.46667 -1.1282,1.46667c-0.62309,0 -1.12821,-0.65664 -1.12821,-1.46667c0,-0.81002 0.50512,-1.46667 1.12821,-1.46667c0.62309,0 1.1282,0.65665 1.1282,1.46667z" fill="#956400" stroke="#80ff00" stroke-width="0"/><path d="M313.98573,177.67408c-0.37963,-0.3254 -0.05423,-0.70502 -0.05423,-0.70502l0.33333,-0.38889c1.13639,-1.32393 2.39174,-2.11905 4.15741,-2.11905c0,0 0.5,0 0.5,0.5c0,0.5 -0.5,0.5 -0.5,0.5c-1.46617,0 -2.45252,0.66493 -3.39815,1.76984l-0.33333,0.38889c0,0 -0.3254,0.37963 -0.70502,0.05423z" fill="#956400" stroke="none" stroke-width="0.5"/><path d="M321.29974,179.20432c0,-0.87313 1.10782,-1.58095 1.98095,-1.58095c0.87313,0 1.82095,0.66782 1.82095,1.54095c0,0.87313 -1.10782,-0.09905 -1.98095,-0.09905c-0.87313,0 -1.82096,1.01218 -1.82096,0.13905z" fill="#956400" stroke="#80ff00" stroke-width="0"/><path d="M325.67598,177.88374l-0.41484,-0.30042c-1.17725,-0.85388 -2.29148,-1.27043 -3.71722,-0.92847c0,0 -0.48621,0.11662 -0.60283,-0.36959c-0.11662,-0.48621 0.36959,-0.60283 0.36959,-0.60283c1.71697,-0.41181 3.12315,0.06859 4.53699,1.09096l0.41484,0.30042c0,0 0.40497,0.29327 0.1117,0.69822c-0.29327,0.40496 -0.69822,0.1117 -0.69822,0.1117z" fill="#956400" stroke="none" stroke-width="0.5"/><path d="M323.20069,182.63204c0,0 -0.30092,0.99548 -0.77632,1.51863c-0.59531,0.65509 -1.69296,0.93087 -2.27353,0.93087c-0.72335,0 -1.67246,-0.30373 -2.34522,-1.06563c-0.37542,-0.42515 -0.77593,-1.38548 -0.77593,-1.38548c0,0 1.50445,0.40536 3.08923,0.39341c1.69104,-0.01275 3.08178,-0.3918 3.08178,-0.3918z" fill="#956400" stroke="#80ff00" stroke-width="0"/></g></g></svg>