<svg version="1.1" xmlns="http://www.w3.org/2000/svg" xmlns:xlink="http://www.w3.org/1999/xlink" width="15.74737" height="15.6006" viewBox="0,0,15.74737,15.6006"><g transform="translate(-312.31679,-172.08408)"><g stroke-width="0" stroke-miterlimit="10"><path d="M317.35489,185.17369c0,0 0,-10.26872 0,-11.70061c0,-0.32195 0.3054,-0.61593 0.65116,-0.64359c1.11858,-0.08949 7.20294,-0.57629 9.27866,-0.74236c0.43525,-0.03482 0.69424,0.23336 0.69424,0.57826c0,1.53219 0,12.5083 0,12.5083h-1.24858l-0.06841,-9.93693l-7.81364,0.73692v9.2z" fill="#009cff" stroke="#e73838"/><path d="M312.31679,184.88797c0,-1.54458 1.46411,-2.7967 3.27018,-2.7967c1.80607,0 3.27018,1.25213 3.27018,2.7967c0,1.54458 -1.46411,2.7967 -3.27018,2.7967c-1.80607,0 -3.27018,-1.25213 -3.27018,-2.7967z" fill="#009cff" stroke="#e73838"/><path d="M321.52381,184.4594c0,-1.54458 1.46411,-2.7967 3.27018,-2.7967c1.80607,0 3.27017,1.25212 3.27017,2.7967c0,1.54458 -1.46411,2.79671 -3.27017,2.79671c-1.80607,0 -3.27018,-1.25213 -3.27018,-2.79671z" fill="#009cff" stroke="#e73838"/></g></g></svg>