<svg version="1.1" xmlns="http://www.w3.org/2000/svg" xmlns:xlink="http://www.w3.org/1999/xlink" width="15.56668" height="16.05701" viewBox="0,0,15.56668,16.05701"><g transform="translate(-312.21666,-172.21672)"><g stroke-width="0" stroke-miterlimit="10"><path d="M312.21666,180.00005c0,-4.29862 3.48472,-7.78333 7.78334,-7.78333c4.29861,0 7.78334,3.48472 7.78334,7.78333c0,4.29862 -3.48472,7.78333 -7.78334,7.78333c-4.29861,0 -7.78334,-3.48472 -7.78334,-7.78333z" fill="#ffde00" stroke="#80ff00"/><path d="M315.59565,183.26948c0.1017,-0.1017 0.34611,-0.30793 0.46517,-0.86449c0.08499,-0.39726 0.03486,-1.13135 0.14831,-1.41124c0.09761,-0.2408 0.30725,-0.27182 0.39778,-0.27058c0.26498,0.00361 0.4681,0.21123 0.6776,0.5451c0.06081,0.09691 0.09585,0.39816 0.04762,0.67329c-0.07708,0.43968 -0.2665,0.91301 -0.14685,1.13568c0.05412,0.10073 0.23085,0.17358 0.23085,0.17358l3.38761,-3.30634c0,0 0.64838,-0.00826 0.64816,0.35482c-0.00007,0.12264 0.03982,0.30004 0.02606,0.46175c-0.00607,0.07127 -0.13786,0.25135 -0.13786,0.25135l-2.11821,2.13822l0.10715,0.084l2.77786,-2.76131c0,0 0.17463,-0.04254 0.34168,0.00933c0.21483,0.0667 0.50841,0.33858 0.43275,0.64267c-0.02312,0.09293 -0.06542,0.2036 -0.11169,0.32014c-0.04903,0.12347 -2.6039,2.56302 -2.6039,2.56302l0.14388,0.15664l2.36944,-2.41343c0,0 0.11857,-0.04799 0.26104,0.00012c0.26318,0.08886 0.62408,0.36601 0.4539,0.76427c-0.06599,0.15445 -2.54033,2.60998 -2.54033,2.60998l0.17084,0.1699l1.85164,-1.86296c0,0 0.1143,-0.09825 0.27004,-0.04156c0.26346,0.09591 0.6166,0.42599 0.39174,0.76955c-0.01604,0.02451 -0.034,0.0424 -0.034,0.0424c0,0 -0.77499,0.79151 -1.5922,1.62603c-0.8998,0.91886 -1.85076,1.88984 -1.87468,1.91376c-0.62808,0.62808 -2.08074,0.67377 -3.12412,0.26742c-0.37577,-0.14635 -0.66334,-0.42859 -0.88955,-0.6548c-0.25135,-0.25135 -0.57535,-0.64198 -0.75728,-1.06756c-0.10008,-0.2341 -0.10651,-0.46189 -0.15301,-0.72248c-0.15627,-0.87581 0.01788,-1.83159 0.48256,-2.29626z" fill="#f79a46" stroke="#956400"/><path d="M318.58977,177.94512c0,0.81002 -0.50511,1.46667 -1.1282,1.46667c-0.62309,0 -1.12821,-0.65664 -1.12821,-1.46667c0,-0.81002 0.50512,-1.46667 1.12821,-1.46667c0.62309,0 1.1282,0.65665 1.1282,1.46667z" fill="#956400" stroke="#80ff00"/><path d="M323.65641,177.94511c0,0.81002 -0.50511,1.46667 -1.1282,1.46667c-0.62309,0 -1.12821,-0.65664 -1.12821,-1.46667c0,-0.81002 0.50512,-1.46667 1.12821,-1.46667c0.62309,0 1.1282,0.65665 1.1282,1.46667z" fill="#956400" stroke="#80ff00"/></g></g></svg>