<svg version="1.1" xmlns="http://www.w3.org/2000/svg" xmlns:xlink="http://www.w3.org/1999/xlink" width="13.26254" height="15.55565" viewBox="0,0,13.26254,15.55565"><g transform="translate(-313.18404,-172.22217)"><g stroke-miterlimit="10"><path d="M319.64416,178.5215c-0.58369,0 -0.58369,-0.58369 -0.58369,-0.58369v-0.0449c0,-2.01408 -0.12136,-3.81149 1.20952,-5.44322c0,0 0.36962,-0.45175 0.82137,-0.08214c0.45175,0.36962 0.08214,0.82137 0.08214,0.82137c-1.13267,1.37955 -0.94565,2.98718 -0.94565,4.70399v0.0449c0,0 0,0.58369 -0.58369,0.58369z" fill="#805512" stroke="none" stroke-width="0.5"/><path d="M313.19302,181.42654c0,-1.89469 -0.19684,-4.17438 1.25176,-5.31084c0.64918,-0.50929 1.89537,-0.4505 3.02844,-0.0986c0.90463,0.28095 1.68436,0.83012 2.41718,0.83012c0.96063,0 1.91393,-0.56785 2.93491,-0.83599c1.13222,-0.29735 2.31422,-0.2674 2.96,0.42405c1.01412,1.08584 0.5598,3.57837 0.5598,5.12595c0,1.06579 -0.55668,2.28185 -1.03944,3.24899c-0.67229,1.34677 -1.47475,2.33734 -2.85964,2.89053c-0.81343,0.32493 -1.75886,-0.48272 -2.70122,-0.48272c-1.08068,0 -2.05306,0.75092 -2.95686,0.33038c-1.16463,-0.5419 -1.84364,-1.56084 -2.49676,-2.71846c-0.57482,-1.01883 -1.09814,-2.26963 -1.09814,-3.4034z" fill="#7daf44" stroke="#2132d0" stroke-width="0"/><path d="M317.42302,173.98977c0.9288,0.61047 2.36286,2.4943 2.14227,2.82994c-0.22685,0.34516 -2.55632,-0.17629 -3.48514,-0.78677c-0.9232,-0.60677 -2.32032,-2.48569 -2.09786,-2.82415c0.22513,-0.34255 2.51753,0.17421 3.44073,0.78099z" fill="#68913a" stroke="none" stroke-width="0"/></g></g></svg>