<svg version="1.1" xmlns="http://www.w3.org/2000/svg" xmlns:xlink="http://www.w3.org/1999/xlink" width="15.56668" height="17.16524" viewBox="0,0,15.56668,17.16524"><g transform="translate(-312.21666,-172.21672)"><g stroke-miterlimit="10"><path d="M312.21666,180.00006c0,-4.29862 3.48472,-7.78333 7.78334,-7.78333c4.29861,0 7.78334,3.48472 7.78334,7.78333c0,4.29862 -3.48472,7.78333 -7.78334,7.78333c-4.29861,0 -7.78334,-3.48472 -7.78334,-7.78333z" fill="#ffde00" stroke="#80ff00" stroke-width="0"/><path d="M315.55927,182.99585c0.04647,-0.01309 0.10675,-0.12961 0.17087,-0.2589c0.14799,-0.29839 0.18486,-0.84566 0.25136,-1.0355c0.06791,-0.19385 0.16484,-0.86629 0.47284,-1.20724c0.21209,-0.23478 0.66265,-0.20852 0.71293,-0.18066c0.14156,0.07844 0.20243,0.35223 0.26328,0.46764c0.06614,0.12545 0.05739,0.36638 0.06237,0.43646c0.00851,0.1195 -0.62995,1.72089 -0.6393,1.85175c-0.00705,0.09876 -0.06278,0.19198 -0.00433,0.26833c0.04029,0.05264 0.08798,0.21059 0.18899,0.317c0.13297,0.14008 0.31977,0.22703 0.31977,0.22703l5.07746,-1.36718c0,0 0.6415,0.31404 0.44927,0.64862c-0.06493,0.11301 -0.11955,0.29633 -0.21859,0.43856c-0.04366,0.06269 -0.26839,0.1633 -0.26839,0.1633l-3.2123,0.92016c0,0 0.46662,-0.07121 0.60335,0.05947c0.17583,0.16806 0.56207,0.77966 0.32691,1.02243c-0.07187,0.0742 -0.4672,0.31119 -0.4672,0.31119c0,0 0.17683,-0.14041 0.33572,0.01074c0.24703,0.23499 0.48989,0.81949 0.25995,0.99152c-0.14653,0.10964 -0.49995,0.23511 -0.49995,0.23511c0,0 0.2072,0.0008 0.37921,0.07394c0.13149,0.05591 0.23428,0.17909 0.25673,0.22743c0.14643,0.31527 0.01335,0.87345 -0.32446,0.97222c-1.37014,0.40061 -2.46186,0.72355 -2.49802,0.73373c-0.94936,0.26737 -2.40098,-0.41117 -3.21138,-1.30336c-0.29186,-0.32132 -0.42518,-0.72416 -0.52784,-1.0449c-0.11406,-0.35639 -0.22586,-0.8772 -0.17956,-1.35975c0.02546,-0.26544 0.13961,-0.47861 0.23173,-0.74189c0.30962,-0.88484 0.98621,-1.67947 1.68858,-1.87728z" fill="#f79a46" stroke="#956400" stroke-width="0"/><path d="M318.90089,177.83402c0,0.81002 -0.50511,1.46667 -1.1282,1.46667c-0.62309,0 -1.12821,-0.65664 -1.12821,-1.46667c0,-0.81002 0.50512,-1.46667 1.12821,-1.46667c0.62309,0 1.1282,0.65665 1.1282,1.46667z" fill="#956400" stroke="#80ff00" stroke-width="0"/><path d="M323.98975,178.50068c0,0.81002 -0.50511,1.46667 -1.1282,1.46667c-0.62309,0 -1.12821,-0.65664 -1.12821,-1.46667c0,-0.81002 0.50512,-1.46667 1.12821,-1.46667c0.62309,0 1.1282,0.65665 1.1282,1.46667z" fill="#956400" stroke="#80ff00" stroke-width="0"/><path d="M315.19793,175.57546c-0.17539,-0.45886 0.22978,-0.65748 0.22978,-0.65748l0.41505,-0.20347c1.41427,-0.69199 2.71832,-0.85654 4.11972,-0.08273c0,0 0.39684,0.21913 0.20335,0.66855c-0.19349,0.44942 -0.59033,0.2303 -0.59033,0.2303c-1.16368,-0.64255 -2.20385,-0.47715 -3.38196,0.10159l-0.41505,0.20347c0,0 -0.40517,0.19862 -0.58055,-0.26023z" fill="#956400" stroke="none" stroke-width="0.5"/><path d="M320.89473,177.11764c-0.11978,-0.48129 0.30553,-0.61682 0.30553,-0.61682l0.43567,-0.13885c1.48438,-0.47181 2.79717,-0.43757 4.09573,0.54133c0,0 0.36772,0.2772 0.12276,0.69332c-0.24496,0.41612 -0.61268,0.13892 -0.61268,0.13892c-1.07829,-0.81286 -2.12945,-0.80631 -3.36624,-0.41102l-0.43568,0.13885c0,0 -0.4253,0.13554 -0.54507,-0.34574z" fill="#956400" stroke="none" stroke-width="0.5"/><path d="M317.41567,181.58309c-0.07256,-0.48585 0.36585,-0.59265 0.36585,-0.59265l0.4491,-0.10941c1.53003,-0.37153 2.83894,-0.25169 4.04105,0.80549c0,0 0.34041,0.29937 0.05477,0.69665c-0.28564,0.39728 -0.62606,0.09791 -0.62606,0.09791c-0.9982,-0.87785 -2.04959,-0.9401 -3.32462,-0.62837l-0.44911,0.10942c0,0 -0.43841,0.10681 -0.51097,-0.37903z" fill="#956400" stroke="none" stroke-width="0.5"/></g></g></svg>