<svg version="1.1" xmlns="http://www.w3.org/2000/svg" xmlns:xlink="http://www.w3.org/1999/xlink" width="15.38744" height="10.89689" viewBox="0,0,15.38744,10.89689"><g transform="translate(-312.30628,-174.55156)"><g stroke="#2132d0" stroke-width="0" stroke-miterlimit="10"><path d="M312.85523,174.84064c0.0417,-0.09782 0.13118,-0.28908 0.13118,-0.28908l14.70731,6.26609c0,0 -0.07686,0.19929 -0.11903,0.29823c-1.59574,3.74301 -6.1844,5.37258 -10.24905,3.63972c-4.06467,-1.73286 -6.06612,-6.17194 -4.47041,-9.91495z" fill="#4cb030"/><path d="M313.51202,175.09003c0.03805,-0.08923 0.11965,-0.26374 0.11965,-0.26374l13.41687,5.71629c0,0 -0.07012,0.1818 -0.10859,0.27206c-1.45573,3.41461 -5.64177,4.90117 -9.34977,3.32037c-3.70803,-1.58081 -5.53389,-5.6304 -4.07816,-9.045z" fill="#ffd1a6"/><path d="M314.16883,175.33943c0.03438,-0.08064 0.10815,-0.23837 0.10815,-0.23837l12.12642,5.16649c0,0 -0.06338,0.16431 -0.09816,0.24589c-1.31571,3.08618 -5.09913,4.42977 -8.45052,3.001c-3.35139,-1.42878 -5.00162,-5.08885 -3.68591,-8.17503z" fill="#e82727"/><path d="M316.62791,177.83621c-0.21701,0.14989 -0.46383,0.16876 -0.55127,0.04217c-0.08743,-0.1266 0.01762,-0.35072 0.23463,-0.50062c0.21701,-0.14989 0.46383,-0.16876 0.55127,-0.04217c0.08743,0.1266 -0.01762,0.35072 -0.23463,0.50062z" fill="#000000"/><path d="M318.98128,178.45254c-0.21701,0.14989 -0.46383,0.16876 -0.55127,0.04219c-0.08743,-0.1266 0.01762,-0.35072 0.23463,-0.50062c0.21701,-0.14989 0.46383,-0.16876 0.55127,-0.04217c0.08743,0.1266 -0.0176,0.35072 -0.23463,0.50062z" fill="#000000"/><path d="M317.52578,179.39924c-0.01015,0.26356 -0.143,0.47242 -0.29672,0.46651c-0.15374,-0.00592 -0.27015,-0.22437 -0.26002,-0.48791c0.01015,-0.26356 0.143,-0.4724 0.29674,-0.46651c0.15374,0.00592 0.27015,0.22435 0.26002,0.48791z" fill="#000000"/><path d="M318.05335,181.29817c-0.18621,0.18679 -0.42549,0.25016 -0.53444,0.14155c-0.10897,-0.10862 -0.04633,-0.3481 0.13986,-0.53489c0.18621,-0.18679 0.42549,-0.25016 0.53444,-0.14153c0.10897,0.10862 0.04633,0.3481 -0.13986,0.53489z" fill="#000000"/><path d="M319.68387,180.27472c0.07257,0.25357 0.01148,0.49345 -0.13643,0.53578c-0.14791,0.04232 -0.32665,-0.12891 -0.39921,-0.38248c-0.07257,-0.25357 -0.01148,-0.49345 0.13643,-0.53578c0.14791,-0.04232 0.32665,0.12891 0.39921,0.38248z" fill="#000000"/><path d="M321.4534,180.38743c-0.12729,0.23101 -0.33969,0.35809 -0.47445,0.28386c-0.13476,-0.07423 -0.14081,-0.32171 -0.01353,-0.55271c0.12729,-0.23101 0.33969,-0.35809 0.47445,-0.28383c0.13476,0.07423 0.14081,0.32171 0.01353,0.55271z" fill="#000000"/><path d="M322.14323,182.41859c0.04791,0.25935 -0.03589,0.49227 -0.18719,0.52022c-0.1513,0.02795 -0.31278,-0.15966 -0.36069,-0.41902c-0.04791,-0.25935 0.03589,-0.49227 0.18719,-0.52022c0.1513,-0.02795 0.31278,0.15966 0.36069,0.41902z" fill="#000000"/><path d="M323.38849,180.47736c-0.17362,0.19856 -0.40825,0.27742 -0.52405,0.17615c-0.11583,-0.10127 -0.06898,-0.34434 0.10463,-0.54288c0.17362,-0.19856 0.40825,-0.2774 0.52405,-0.17613c0.11583,0.10127 0.06898,0.34432 -0.10463,0.54288z" fill="#000000"/></g></g></svg>