<svg version="1.1" xmlns="http://www.w3.org/2000/svg" xmlns:xlink="http://www.w3.org/1999/xlink" width="15.65225" height="16.26739" viewBox="0,0,15.65225,16.26739"><g transform="translate(-312.21666,-171.51598)"><g stroke-miterlimit="10"><path d="M312.21666,180.00004c0,-4.29862 3.48472,-7.78333 7.78334,-7.78333c4.29861,0 7.78334,3.48472 7.78334,7.78333c0,4.29862 -3.48472,7.78333 -7.78334,7.78333c-4.29861,0 -7.78334,-3.48472 -7.78334,-7.78333z" fill="#ffde00" stroke="#80ff00" stroke-width="0"/><path d="M317.40067,180.14551c0.87313,0 1.98095,-0.97219 1.98095,-0.09905c0,0.87313 -0.94781,1.54095 -1.82095,1.54095c-0.87313,0 -1.98095,-0.70781 -1.98095,-1.58095c0,-0.87313 0.94781,0.13905 1.82095,0.13905z" fill="#956400" stroke="#80ff00" stroke-width="0"/><path d="M322.7543,180.16077c0.87313,0 1.98095,-0.97219 1.98095,-0.09905c0,0.87313 -0.94781,1.54095 -1.82095,1.54095c-0.87313,0 -1.98095,-0.70781 -1.98095,-1.58095c0,-0.87313 0.94781,0.13905 1.82095,0.13905z" fill="#956400" stroke="#80ff00" stroke-width="0"/><path d="M318.72011,183.91705c0,-0.75552 0.63272,-1.36799 1.41323,-1.36799c0.78051,0 1.41323,0.61247 1.41323,1.36799c0,0.75552 -0.63272,1.36799 -1.41323,1.36799c-0.78051,0 -1.41323,-0.61247 -1.41323,-1.36799z" fill="#956400" stroke="#956400" stroke-width="0"/><text transform="translate(322.8343,178.6882) scale(0.16871,0.16871)" font-size="40" xml:space="preserve" fill="#fccf03" stroke="none" stroke-width="1" font-family="&quot;keifont&quot;, Sans Serif" font-weight="normal" text-anchor="start"><tspan x="0" dy="0">Z</tspan></text><text transform="translate(323.44239,178.38951) scale(0.16871,0.16871)" font-size="40" xml:space="preserve" fill="#2132d0" stroke="none" stroke-width="1" font-family="&quot;keifont&quot;, Sans Serif" font-weight="normal" text-anchor="start"><tspan x="0" dy="0">Z</tspan></text><text transform="translate(320.29931,176.10221) scale(0.11903,0.11903)" font-size="40" xml:space="preserve" fill="#fccf03" stroke="none" stroke-width="1" font-family="&quot;keifont&quot;, Sans Serif" font-weight="normal" text-anchor="start"><tspan x="0" dy="0">Z</tspan></text><text transform="translate(320.49931,175.66978) scale(0.11902,0.11902)" font-size="40" xml:space="preserve" fill="#2132d0" stroke="none" stroke-width="1" font-family="&quot;keifont&quot;, Sans Serif" font-weight="normal" text-anchor="start"><tspan x="0" dy="0">Z</tspan></text><text transform="translate(317.92652,177.20597) scale(0.0905,0.0905)" font-size="40" xml:space="preserve" fill="#fccf03" stroke="none" stroke-width="1" font-family="&quot;keifont&quot;, Sans Serif" font-weight="normal" text-anchor="start"><tspan x="0" dy="0">Z</tspan></text><text transform="translate(318.06165,176.90866) scale(0.0905,0.0905)" font-size="40" xml:space="preserve" fill="#2132d0" stroke="none" stroke-width="1" font-family="&quot;keifont&quot;, Sans Serif" font-weight="normal" text-anchor="start"><tspan x="0" dy="0">Z</tspan></text></g></g></svg>